<svg width="181" height="49" viewBox="0 0 181 49" fill="none" xmlns="http://www.w3.org/2000/svg">
<path d="M21.2196 10.9259C25.9451 9.336 26.252 3.46567 21.6492 3.46567C20.3604 3.46567 18.8261 4.3829 17.7828 6.15623L11.5229 16.9796C11.2161 17.4688 10.9706 17.8969 10.6024 18.3249C9.00672 16.1235 9.43632 12.8215 11.707 11.3539L10.7865 10.1921C5.8768 13.3107 7.3497 22.2385 15.5121 22.2385C22.447 22.2385 25.6996 13.9222 21.2196 10.9259ZM15.4507 20.4651C14.0391 20.4651 12.9958 20.1594 12.0753 19.6702C12.5049 19.181 12.8731 18.6307 13.2413 18.0192L17.1691 11.2316L17.7828 11.2928C23.2448 12.4546 21.0968 20.4651 15.4507 20.4651ZM17.9669 9.88633L19.8694 6.64543C21.5878 3.71027 23.7358 5.42243 22.5697 7.62381C21.6492 9.33598 20.3604 9.82518 17.9669 9.88633Z" fill="white"/>
<path d="M40.9196 18.4482C40.5514 19.7935 41.2878 20.9553 42.8221 20.9553C43.7427 20.9553 44.9087 20.3439 46.0748 19.4266C46.1975 20.3439 46.9339 20.9553 48.1 20.9553C49.3274 20.9553 50.6776 20.0993 52.0278 18.8763C51.7823 20.0993 52.3346 20.9553 53.5007 20.9553C54.7894 20.9553 56.201 19.7935 57.3057 18.754C57.0602 19.977 57.7966 20.9553 59.2695 20.9553C61.172 20.9553 63.3814 18.8763 65.3453 16.6749C65.3453 16.6138 65.2839 16.6137 65.2839 16.5526C66.5727 15.085 67.6774 13.4951 68.5366 12.3945C67.616 14.7793 68.107 19.1209 65.8976 19.1209C65.0998 19.1209 64.7929 18.2648 64.7929 18.2648L63.32 18.9986C63.32 18.9986 63.7496 20.8942 65.8976 20.8942C66.1431 20.8942 66.3272 20.8942 66.5727 20.833H66.6341C68.3525 20.5884 70.0095 19.5489 71.4824 18.2648C71.5437 19.7935 72.7098 20.8942 74.6123 20.8942C77.2513 20.8942 79.8902 18.8151 81.7927 16.6138C81.6086 16.308 81.2404 15.9411 80.9335 15.8188L80.7494 16.0023C79.0924 17.959 76.9444 19.4878 75.2874 19.4878C73.8758 19.4878 73.0166 18.5705 74.06 16.7361L74.3054 16.308C75.7784 16.9195 78.6014 16.6138 80.3812 13.6174L80.688 13.0671C81.9155 10.9269 80.7494 9.337 78.8469 9.337C76.9444 9.337 75.4715 10.3154 74.4896 12.0276L72.2188 15.88H72.1575L71.9733 16.0634C71.1142 17.0418 70.0708 17.959 69.1503 18.5705C69.8867 16.3692 69.7026 12.9448 71.1755 10.0096L69.4571 9.09241C68.4752 10.4377 66.3886 13.434 64.302 15.88L64.3633 15.9411L64.302 16.0634C62.6449 18.0202 60.9879 19.5489 59.9446 19.5489C59.4536 19.5489 59.1468 19.182 59.6991 18.2648L64.6702 9.58159H62.3381L58.2262 16.7972C56.4465 18.3871 55.0963 19.3043 54.6667 19.1209C54.1144 18.8763 54.6667 18.0202 54.9736 17.531L59.515 9.64275H57.1829L53.5007 16.0023C53.4393 15.9411 53.3779 15.9411 53.3165 15.88L53.1324 16.0634C51.4754 18.0202 49.8184 19.5489 48.7751 19.5489C48.2841 19.5489 47.9773 19.182 48.5296 18.2648L52.2732 11.7218H50.9231C50.9844 10.7434 50.0025 9.39815 48.4682 9.39815C47.2408 9.39815 45.461 10.3765 44.4791 12.0887L42.147 16.1246C42.0243 16.0023 41.9015 15.9411 41.7788 15.88L41.5947 16.0634C39.9377 18.0202 37.7897 19.5489 36.1326 19.5489C34.7211 19.5489 33.8619 18.6317 34.9052 16.7972L37.2987 12.6391C38.6489 10.3154 41.0423 10.7434 39.6308 13.1282L39.3239 13.6786H41.2264L41.5333 13.1282C42.7607 10.988 41.5947 9.39815 39.6922 9.39815C37.7897 9.39815 36.3168 10.3765 35.3348 12.0887L33.0027 16.0634C32.9414 16.0023 32.88 16.0023 32.8186 15.9411L32.6345 16.1246C30.9775 18.0813 28.8295 19.6101 27.1725 19.6101C25.7609 19.6101 24.9017 18.6928 25.9451 16.8583L26.1905 16.4303C27.6634 17.0418 30.4865 16.736 32.2663 13.7397L32.5731 13.1894C33.8005 11.0492 32.6345 9.45929 30.732 9.45929C28.8295 9.45929 27.3566 10.4377 26.3746 12.1499L23.9198 16.308C22.4469 18.754 23.7357 21.0776 26.4974 21.0776C28.5226 21.0776 30.6092 19.8547 32.2663 18.2648C32.2049 19.8547 33.4323 21.0776 35.3962 21.0776C37.3601 20.9553 39.2626 19.8547 40.9196 18.4482ZM76.5148 12.5779C77.865 10.2542 80.2584 10.6823 78.8469 13.0671L78.54 13.6174C77.4354 15.5131 75.9011 15.4519 75.0419 15.1462L76.5148 12.5779ZM43.2517 18.2648L46.5044 12.6391C47.7318 10.4988 50.248 11.0492 49.0819 13.1282L47.2408 16.308C45.8293 18.5094 44.4177 19.5489 43.4972 19.5489C43.0062 19.4878 42.6993 19.182 43.2517 18.2648ZM28.3999 12.5779C29.7501 10.2542 32.1435 10.6823 30.732 13.0671L30.4251 13.6174C29.3205 15.5131 27.7862 15.4519 26.927 15.1462L28.3999 12.5779Z" fill="white"/>
<path d="M107.323 20.954C109.962 20.954 112.601 18.8749 114.503 16.6735C114.319 16.3678 113.951 16.0009 113.644 15.8786L113.46 16.062C111.803 18.0188 109.655 19.5475 107.998 19.5475C106.587 19.5475 105.727 18.6303 106.771 16.7958L107.016 16.3678C108.489 16.9793 111.312 16.6735 113.092 13.6772L113.399 13.1269C114.626 10.9867 113.46 9.39679 111.558 9.39679C109.655 9.39679 108.182 10.3752 107.2 12.0873L104.93 15.9397C104.93 15.9397 104.868 15.9397 104.868 15.8786L104.684 16.062C103.027 18.0188 101.37 19.5475 100.327 19.5475C99.8358 19.5475 99.5289 19.1807 100.081 18.2634L103.457 12.3931C104.439 10.6198 103.518 9.33563 102.229 9.33563C101.247 9.33563 100.143 9.88597 98.9766 11.109L102.72 4.68829H100.327L93.76 16.0009C93.6987 15.9397 93.5759 15.8786 93.5145 15.8175L93.3304 16.0009C91.6734 17.9577 90.0164 19.4864 88.9731 19.4864C88.4821 19.4864 88.1753 19.1195 88.7276 18.2023L93.6986 9.51907H95.6012L96.2762 8.41839H94.3737L96.5831 4.62714H94.251L92.0416 8.41839H89.955L89.2799 9.51907H91.4279L86.7637 17.5908C85.7818 19.303 86.4569 20.8928 88.3594 20.8928C89.5254 20.8928 90.7528 20.159 92.0416 19.0584L91.1211 20.6482H93.4532L97.0127 14.5333C100.572 10.0694 102.168 10.6198 101.186 12.3319L98.1787 17.5908C97.1968 19.303 97.8719 20.8928 99.7744 20.8928C101.186 20.8928 102.782 19.7921 104.254 18.3246C104.254 19.8533 105.421 20.954 107.323 20.954ZM109.226 12.5765C110.576 10.2529 112.969 10.6809 111.558 13.0657L111.251 13.6161C110.146 15.5117 108.612 15.4506 107.753 15.1448L109.226 12.5765Z" fill="white"/>
<path d="M177.9 15.8791L177.716 16.0626C176.059 18.0193 174.402 19.548 173.358 19.548C172.867 19.548 172.561 19.1812 173.113 18.2639L180.968 4.6888H178.636L175.199 10.5591C174.77 9.88649 174.033 9.33614 173.051 9.33614C171.824 9.33614 170.044 10.3145 169.062 12.0267L166.792 15.9402C166.73 15.9402 166.669 15.8791 166.669 15.8791L166.485 16.0626C164.828 18.0193 163.171 19.548 162.127 19.548C161.636 19.548 161.33 19.1812 161.882 18.2639L165.257 12.3936C166.239 10.6203 165.319 9.33614 164.03 9.33614C163.048 9.33614 161.943 9.88648 160.777 11.0483L161.636 9.51958H159.304L155.561 15.9402C155.499 15.8791 155.438 15.818 155.315 15.818L155.131 16.0014C153.474 17.9582 151.817 19.4869 150.774 19.4869C150.283 19.4869 149.976 19.12 150.528 18.2028L154.272 11.6598H153.106C153.167 10.6814 152.185 9.33614 150.651 9.33614C149.424 9.33614 147.644 10.3145 146.662 12.0267L144.391 15.8791L144.268 16.0014C142.611 17.9582 140.954 19.4869 139.911 19.4869C139.42 19.4869 139.113 19.12 139.666 18.2028L141.998 14.1669C142.796 12.7605 142.427 11.9656 141.691 11.0483L140.402 9.45843C140.095 9.03039 140.095 8.5412 140.525 8.11316L139.297 6.76787C137.947 7.9297 137.886 9.275 138.684 10.3145L138.868 10.5591C137.824 12.0267 136.474 13.9835 134.94 15.7568C135.001 15.818 135.063 15.8791 135.124 15.9402C133.222 18.1416 131.565 19.5481 129.724 20.343L132.669 15.3288H130.399L130.153 15.7568C128.926 17.897 127.514 19.4869 125.673 19.4869C124.077 19.4869 123.771 17.897 125.182 15.5122L125.857 14.3504C126.287 14.4115 126.716 14.4727 127.207 14.4727C135.492 14.4727 139.482 3.40466 132.178 3.40466C130.89 3.40466 129.355 4.3219 128.312 6.09522L124.691 12.3325C123.341 11.5987 122.604 10.3145 122.604 9.0304C122.604 7.92971 123.095 6.89016 124.077 6.09522L123.341 4.74995C121.684 5.91179 120.947 7.50167 120.947 9.09155C120.947 10.926 121.991 12.6994 123.893 13.6777L123.218 14.9007C121.561 17.7136 121.868 20.8322 125.182 20.8322C126.164 20.8322 127.023 20.5265 127.698 20.0984L127.085 21.1379C123.955 22.1163 121.991 23.3393 121.991 25.1126C121.991 27.314 125.428 27.8032 127.085 24.9292L128.864 21.8717C131.258 21.1379 133.651 19.4869 136.229 16.4906C136.167 16.4294 136.167 16.3683 136.106 16.246C137.149 15.023 138.009 13.8612 139.788 11.4764L140.095 11.8433C140.402 12.2102 140.525 12.6993 140.218 13.1885L137.763 17.469C136.781 19.1812 137.456 20.771 139.359 20.771C140.525 20.771 141.814 20.0372 143.041 18.9366C143.041 19.9761 143.716 20.771 145.066 20.771C145.987 20.771 147.153 20.1595 148.319 19.2423C148.442 20.1595 149.178 20.771 150.344 20.771C151.449 20.771 152.676 20.0984 153.842 19.0589L152.983 20.5264H155.315L158.875 14.3504C162.434 9.88647 164.03 10.498 162.987 12.2101L159.979 17.469C158.998 19.1812 159.673 20.771 161.575 20.771C162.802 20.771 164.153 19.915 165.503 18.7531C165.38 19.915 166.117 20.771 167.528 20.771C168.449 20.771 169.615 20.1595 170.781 19.2423C170.903 20.1595 171.64 20.771 172.806 20.771C174.708 20.771 176.918 18.692 178.882 16.4906C178.636 16.3683 178.207 16.0014 177.9 15.8791ZM130.092 7.19592C130.767 6.03409 131.565 5.48373 132.178 5.48373C135.861 5.48373 133.283 13.0051 127.207 13.0051H126.716L130.092 7.19592ZM125.121 24.6846C124.63 25.5407 123.832 25.4184 123.832 24.8069C123.832 24.1954 124.384 23.5228 126.164 22.8501L125.121 24.6846ZM149.485 16.246C148.073 18.4474 146.662 19.4869 145.741 19.4869C145.25 19.4869 144.944 19.12 145.496 18.2028L148.749 12.577C149.976 10.4368 152.492 10.9872 151.326 13.0662L149.485 16.246ZM172.008 16.1237C170.597 18.4474 169.185 19.4869 168.203 19.4869C167.712 19.4869 167.405 19.12 167.958 18.2028L171.21 12.577C172.438 10.4368 174.954 10.9872 173.788 13.0662L172.008 16.1237Z" fill="white"/>
<path d="M100.143 37.8925L99.9586 38.076C98.3016 40.0328 96.6446 41.5615 95.6013 41.5615C95.1103 41.5615 94.8034 41.1946 95.3558 40.2774L98.7312 34.407C99.7131 32.6337 98.7925 31.3496 97.5038 31.3496C96.5218 31.3496 95.4171 31.8999 94.2511 33.0617L95.1103 31.533H92.7782L89.0346 38.0148C88.9118 37.9537 88.8504 37.8925 88.7277 37.8314L88.5436 38.0148C87.5003 39.1767 86.2115 39.727 85.0454 39.727L87.2548 35.9358C88.6663 33.4898 87.3775 31.2273 85.1682 31.2273C83.3884 31.2273 81.9769 31.9611 80.6267 34.2847L79.4607 36.2415L78.4787 37.9537C78.4174 37.8925 78.356 37.8925 78.2946 37.8314L78.1105 38.0148C76.208 40.2162 74.551 41.6226 72.7099 42.4176L79.0924 31.533H76.7603L72.6485 38.6875C70.8687 40.3385 69.4572 41.2557 69.0276 41.0723C68.4752 40.8277 69.0276 39.9716 69.3344 39.4824L73.8759 31.5942H71.5438L67.8002 38.0148C67.7388 37.9537 67.6774 37.9537 67.6161 37.8925L67.4319 38.076C65.7749 40.0328 64.1179 41.5615 63.0746 41.5615C62.5836 41.5615 62.2768 41.1946 62.8291 40.2774L66.2045 34.407C67.1865 32.6337 66.2659 31.3496 64.9771 31.3496C63.9952 31.3496 62.8905 31.8999 61.7244 33.0617L62.5836 31.533H60.2515L56.5079 37.9537C56.4465 37.8925 56.3851 37.8314 56.2624 37.8314L56.0783 38.0148C54.4213 39.9716 52.7643 41.5003 51.721 41.5003C51.23 41.5003 50.9231 41.1334 51.4755 40.2162L55.2191 33.6732H53.8689C53.9303 32.6949 52.9484 31.3496 51.4141 31.3496C50.1867 31.3496 48.4069 32.328 47.425 34.0401L45.0315 38.1983C44.8474 38.076 44.6633 37.9537 44.5405 37.8925L44.3564 38.076C42.6994 40.0328 40.6128 41.5615 38.3421 41.5615C36.7464 41.5615 35.7645 39.9716 37.176 37.5868L37.8511 36.425C38.2807 36.4861 38.7103 36.5473 39.2013 36.5473C41.6561 36.5473 44.4792 35.2631 46.3203 32.0834C46.9954 30.9215 47.2409 29.882 47.2409 28.9648C47.2409 26.8857 45.8907 25.4792 44.1723 25.4792C42.8835 25.4792 41.3492 26.3965 40.3059 28.1698L36.685 34.407C35.3349 33.6732 34.5984 32.3891 34.5984 31.105C34.5984 30.0043 35.0894 28.9647 36.0713 28.1698L35.3349 26.8245C33.6779 27.9864 32.9414 29.5762 32.9414 31.1661C32.9414 33.0006 33.9847 34.7739 35.8872 35.7523L35.2121 36.9753C33.5551 39.7882 34.5371 42.9068 37.8511 42.9068C40.4287 42.9068 42.3925 41.7449 43.9882 40.2162C43.4972 41.6838 44.2337 42.9068 45.8907 42.9068C46.8113 42.9068 47.9773 42.2953 49.1434 41.378C49.2661 42.2953 50.0026 42.9068 51.1686 42.9068C52.2733 42.9068 53.5007 42.2341 54.6668 41.1946L53.8076 42.6622H56.1397L59.6992 36.4861C63.2587 32.0222 64.8544 32.6337 63.811 34.3459L60.8039 39.6047C59.8219 41.3169 60.497 42.9068 62.3995 42.9068C63.6269 42.9068 65.0385 42.0507 66.3886 40.8277C66.0818 42.1118 66.6955 42.9068 67.8615 42.9068C68.9662 42.9068 70.255 41.9895 71.2983 41.0111L70.0095 43.2125C66.8796 44.1298 64.8544 45.4139 64.8544 47.1872C64.8544 49.3886 68.2911 49.8778 69.9482 47.0038L71.7279 43.9463C73.6918 43.3348 75.5943 42.1118 77.6195 40.1551C77.3127 43.396 81.6087 44.1298 84.2476 40.8277H84.7386C85.5978 40.8277 86.7638 40.522 87.8071 39.9105L86.2729 42.601H88.6049L92.1645 36.425C95.724 31.9611 97.3196 32.5726 96.2763 34.2847L93.2692 39.5436C92.2872 41.2557 92.9623 42.8456 94.8648 42.8456C96.7673 42.8456 98.9767 40.7665 100.941 38.5652C100.879 38.3817 100.45 38.0148 100.143 37.8925ZM42.2084 29.2094C42.8835 28.0475 43.6813 27.4972 44.2951 27.4972C45.1542 27.4972 45.5838 28.0475 45.5838 28.9036C45.5838 31.0438 42.9449 34.9574 39.324 34.9574H38.833L42.2084 29.2094ZM50.4322 38.2594C49.0206 40.4608 47.6091 41.5003 46.6885 41.5003C46.1976 41.5003 45.8907 41.1334 46.443 40.2162L49.6957 34.5905C50.9231 32.4503 53.4393 33.0006 52.2733 35.0797L50.4322 38.2594ZM68.107 46.698C67.6161 47.5541 66.8182 47.4318 66.8182 46.8203C66.8182 46.2088 67.3706 45.5362 69.1503 44.8636L68.107 46.698ZM83.818 38.0148H83.6953C82.9588 38.0148 82.3451 38.6263 82.3451 39.4213C82.3451 39.727 82.4065 39.9716 82.5906 40.2162V40.2774C81.4859 42.173 78.847 41.8061 80.1971 39.3601L81.9769 36.3027L83.0816 34.407C84.7386 31.6553 86.9479 32.756 85.5364 35.1408L83.818 38.0148Z" fill="white"/>
<path d="M154.088 38.6884C153.965 38.3215 153.536 37.9546 153.229 37.8935L153.045 38.0769C152.185 39.0553 151.142 39.9726 150.221 40.5841C150.958 38.3827 150.774 34.9583 152.247 32.0232L150.528 31.1059C149.546 32.4512 147.46 35.4475 145.373 37.8935L145.189 38.0769C143.532 40.0337 141.875 41.5624 140.832 41.5624C140.341 41.5624 139.85 41.0733 139.85 39.9726V38.9942C141.507 39.1776 143.225 38.1381 144.33 36.2425L144.944 35.1418C147.092 31.4117 143.593 30.1887 141.2 32.3901L144.514 26.642H142.182L135.554 38.1381C135.431 38.0158 135.247 37.8935 135.124 37.8323L134.94 38.0158C133.283 39.9726 131.135 41.5013 129.478 41.5013C128.067 41.5013 127.207 40.5841 128.251 38.7496L130.644 34.5914C131.994 32.2678 134.388 32.6958 132.976 35.0806L132.669 35.631H134.572L134.879 35.0806C136.106 32.9404 134.94 31.3505 133.038 31.3505C131.135 31.3505 129.662 32.3289 128.68 34.0411L126.409 37.9546C126.348 37.9546 126.287 37.8935 126.287 37.8935L126.103 38.0769C124.446 40.0337 122.789 41.5624 121.745 41.5624C121.254 41.5624 120.947 41.1956 121.5 40.2783L126.471 31.5951H124.139L120.027 38.8107C118.247 40.4006 116.897 41.3178 116.467 41.1344C115.915 40.8898 116.467 40.0337 116.774 39.5445L121.316 31.6563H118.984L114.442 39.4222C113.951 39.8503 113.399 40.2783 112.969 40.6452C113.706 38.4438 113.522 35.0195 114.994 32.0843L113.276 31.1671C112.294 32.5123 106.955 39.6057 104.807 42.0516C104.991 42.3574 105.359 42.602 105.666 42.8466C107.016 41.3178 111.435 35.631 112.233 34.5303C111.312 36.9151 111.803 41.2567 109.594 41.2567C108.796 41.2567 108.489 40.4006 108.489 40.4006L107.016 41.1344C107.016 41.1344 107.446 43.03 109.594 43.03C109.839 43.03 110.023 43.03 110.269 42.9689H110.33C111.496 42.7854 112.662 42.2962 113.767 41.5013C113.767 42.4185 114.319 43.03 115.301 43.03C116.59 43.03 118.002 41.8682 119.106 40.8287C118.861 42.0516 119.597 43.03 121.07 43.03C122.543 43.03 124.139 41.8682 125.673 40.3394C125.673 41.8682 126.9 43.03 128.803 43.03C130.705 43.03 132.547 41.9905 134.204 40.5841L132.915 42.8466H135.247L137.886 38.2604V40.0949C137.886 42.0516 138.254 43.0912 140.157 43.0912C142.059 43.0912 144.268 41.0121 146.232 38.8107C147.583 37.282 148.687 35.6921 149.546 34.5914C148.626 36.9762 149.117 41.3178 146.907 41.3178C146.11 41.3178 145.803 40.4618 145.803 40.4618L144.33 41.1956C144.33 41.1956 144.759 43.0912 146.907 43.0912C147.153 43.0912 147.337 43.0912 147.583 43.03H147.644C149.976 42.602 152.369 40.7064 154.088 38.6884ZM138.622 36.854L139.297 35.6921C141.998 31.962 143.839 33.0016 142.98 34.408L141.875 36.3036C141.2 37.5266 139.175 38.3827 138.622 36.854Z" fill="white"/>
<path d="M154.026 40.2781C153.29 40.2781 152.676 40.8896 152.676 41.6233C152.676 42.3571 153.229 42.9686 154.026 42.9686C154.763 42.9686 155.377 42.4183 155.377 41.6233C155.377 40.8896 154.763 40.2781 154.026 40.2781Z" fill="white"/>
<path d="M154.149 39.3602H156.481L163.785 26.7023H161.452L154.149 39.3602Z" fill="white"/>
<path d="M4.21956 4.7506C4.21956 4.93405 4.15818 5.11749 4.09681 5.30094C4.03544 5.48439 3.9127 5.66783 3.78996 5.79013C3.66722 5.91243 3.4831 6.03473 3.29899 6.15703C3.11488 6.21818 2.8694 6.27933 2.62391 6.27933C2.31706 6.27933 2.07157 6.21817 1.82609 6.09587C1.5806 5.97358 1.33512 5.85129 1.151 5.66784C0.966891 5.48439 0.905521 5.30095 0.782779 5.05635C0.721408 4.81175 0.660034 4.56714 0.660034 4.2614C0.660034 3.71105 0.782776 3.28301 0.966889 2.79382C1.151 2.36578 1.39649 1.93774 1.76472 1.63199C1.88746 1.50969 2.07157 1.32624 2.25568 1.20394C2.43979 1.08164 2.62391 0.959341 2.80802 0.898191C2.99213 0.837042 3.11488 0.714747 3.23762 0.653598C3.36036 0.592449 3.42173 0.59246 3.4831 0.531311L4.3423 1.7543C4.21956 1.81544 4.03545 1.87659 3.85133 1.99889C3.66722 2.06004 3.4831 2.18234 3.29899 2.30463C3.11488 2.42693 2.99213 2.61037 2.86939 2.79382C2.74665 2.97727 2.68528 3.16072 2.68528 3.40531C3.11488 3.40531 3.42173 3.52761 3.72859 3.77221C4.09681 3.95566 4.21956 4.32256 4.21956 4.7506ZM9.06787 4.7506C9.06787 4.93405 9.0065 5.11749 8.94513 5.30094C8.88376 5.48439 8.76101 5.66783 8.63827 5.79013C8.51553 5.91243 8.33142 6.03473 8.14731 6.15703C7.96319 6.21818 7.7177 6.27933 7.47222 6.27933C7.16537 6.27933 6.91988 6.21817 6.6744 6.09587C6.42892 5.97358 6.18343 5.85129 5.99932 5.66784C5.87658 5.48439 5.75383 5.30095 5.63109 5.05635C5.56972 4.81175 5.50835 4.56714 5.50835 4.2614C5.50835 3.71105 5.63109 3.28301 5.8152 2.79382C5.99932 2.36578 6.2448 1.93774 6.61303 1.63199C6.73577 1.50969 6.91988 1.32624 7.104 1.20394C7.28811 1.08164 7.47222 0.959341 7.65634 0.898191C7.84045 0.837042 7.96319 0.714747 8.08593 0.653598C8.20867 0.592449 8.27005 0.59246 8.33142 0.531311L9.19061 1.7543C9.06787 1.81544 8.88375 1.87659 8.69964 1.99889C8.51553 2.06004 8.33142 2.18234 8.14731 2.30463C7.96319 2.42693 7.84045 2.61037 7.71771 2.79382C7.59496 2.97727 7.5336 3.16072 7.5336 3.40531C7.96319 3.40531 8.27005 3.52761 8.5769 3.77221C8.88376 3.95566 9.06787 4.32256 9.06787 4.7506Z" fill="white"/>
<path d="M171.763 40.7673C171.763 40.5838 171.824 40.4004 171.885 40.2169C171.947 40.0335 172.069 39.85 172.192 39.7277C172.315 39.6054 172.499 39.4831 172.683 39.3608C172.867 39.2997 173.113 39.2385 173.358 39.2385C173.665 39.2385 173.911 39.2997 174.156 39.422C174.402 39.5443 174.647 39.6666 174.831 39.85C175.015 40.0335 175.077 40.2169 175.199 40.4615C175.261 40.7061 175.322 40.9507 175.322 41.2564C175.322 41.8068 175.199 42.2348 175.015 42.724C174.831 43.1521 174.586 43.5801 174.217 43.8859C174.095 44.0082 173.911 44.1916 173.726 44.3139C173.542 44.4362 173.358 44.5585 173.174 44.6196C172.99 44.6808 172.867 44.8031 172.745 44.8643C172.622 44.9254 172.56 44.9254 172.499 44.9865L171.64 43.7636C171.763 43.7024 171.947 43.6413 172.131 43.519C172.315 43.4578 172.499 43.3355 172.683 43.2132C172.867 43.0909 172.99 42.9075 173.113 42.724C173.236 42.5406 173.297 42.3571 173.297 42.1125C172.867 42.1125 172.56 41.9902 172.254 41.7456C171.947 41.5622 171.763 41.1953 171.763 40.7673ZM166.976 40.7673C166.976 40.5838 167.037 40.4004 167.098 40.2169C167.16 40.0335 167.282 39.85 167.405 39.7277C167.528 39.6054 167.712 39.4831 167.896 39.3608C168.08 39.2997 168.326 39.2385 168.571 39.2385C168.878 39.2385 169.124 39.2997 169.369 39.422C169.615 39.5443 169.86 39.6666 170.044 39.85C170.167 40.0335 170.29 40.2169 170.412 40.4615C170.474 40.7061 170.535 40.9507 170.535 41.2564C170.535 41.8068 170.412 42.2348 170.228 42.724C170.044 43.1521 169.799 43.5801 169.43 43.8859C169.308 44.0082 169.124 44.1916 168.94 44.3139C168.755 44.4362 168.571 44.5585 168.387 44.6196C168.203 44.6808 168.08 44.8031 167.958 44.8643C167.835 44.9254 167.773 44.9254 167.712 44.9865L166.853 43.7636C167.037 43.7024 167.16 43.6413 167.344 43.519C167.528 43.4578 167.712 43.3355 167.896 43.2132C168.08 43.0909 168.203 42.9075 168.326 42.724C168.449 42.5406 168.51 42.3571 168.51 42.1125C168.08 42.1125 167.773 41.9902 167.467 41.7456C167.098 41.5622 166.976 41.1953 166.976 40.7673Z" fill="white"/>
</svg>
