<svg width="229" height="39" fill="none" xmlns="http://www.w3.org/2000/svg"><path d="M27.3156 26.6366c0 .2513-.0501.4523-.0501.6533-.2506 2.0104-.9022 3.9704-1.9547 5.7797-1.0525 1.8093-2.506 3.2165-4.2602 4.2216-.6516.3016-1.3533.5529-2.055.8042-.7017.201-1.4033.402-2.105.5528-.6015.1005-1.1528.201-1.7542.2513-.6015.0502-1.1528.1005-1.7041.1005h-.6015c-2.3055-.1005-4.611-.6031-6.8665-1.558C3.759 36.4369 1.7543 35.1804 0 33.5722l4.6612-7.4884.1002.1005.1003.1005c1.0525 1.1559 2.2554 2.2616 3.5585 3.2165 1.3032.9549 2.8569 1.5077 4.561 1.6082.0501 0 .1002 0 .1503.0503.0502 0 .1003.0503.1504.0503.0501 0 .1002 0 .1504.0502.0501 0 .1002.0503.1503.0503.1504 0 .3007 0 .5012-.0503.1504 0 .3509-.0502.5012-.1005.6015-.1005 1.2029-.3518 1.7542-.7036.5514-.3518 1.0025-.7539 1.3032-1.3067.0501-.1005.1002-.1508.1002-.2513.0501-.1005.1003-.1508.1003-.2513.1002-.2513.1503-.5026.1503-.7539.0501-.2512.0501-.4523.0501-.6533 0-1.0554-.451-1.9601-1.3532-2.6637-.9022-.7036-1.9046-1.2564-2.9571-1.6585-.4511-.1507-.8521-.3015-1.2029-.402-.401-.1006-.7518-.2011-1.1027-.2513-.0501 0-.1002 0-.1002-.0503-.0501 0-.1002-.0502-.1002-.0502-1.9046-.4524-3.709-1.2062-5.363-2.2616-1.6539-1.0555-2.8067-2.5129-3.4582-4.473l-.3007-1.2062c-.1003-.4523-.1504-.8543-.2005-1.3569-.0502-.1508-.0502-.3016-.0502-.4523v-.4524c0-.3015 0-.6031.0502-.9549 0-.3015.05-.6031.1503-.9549.1003-.7538.3008-1.558.6015-2.3118a8.3107 8.3107 0 0 1 1.0525-2.1108c1.253-2.0606 2.8569-3.518 4.8116-4.4227C10.3749.4523 12.4299 0 14.5349 0c.5012 0 1.0024.0503 1.5537.1005.5012.0503 1.0526.1508 1.6039.201 1.4034.2513 2.8067.6031 4.16 1.156 1.3532.5528 2.6564 1.2062 3.8091 1.9098l-3.2077 7.1868c-1.0525-.7538-2.1551-1.4574-3.3079-2.0605-1.1528-.6031-2.4058-.8544-3.759-.8544h-.5012c-.9022.1005-1.7041.5026-2.5061 1.2062-.7518.7036-1.1527 1.4072-1.1527 2.2113 0 .1005 0 .2513.0501.3518 0 .1005.0501.2513.1503.3518.1003.2513.2005.5026.401.7539.2005.2513.401.4523.6516.6533.4511.3518 1.0525.6534 1.8544.9549.802.3016 1.654.5529 2.5562.8544.7518.201 1.4535.4021 2.1551.5528.7017.1508 1.3032.3518 1.7543.5026 2.1551.7539 3.8091 2.0606 4.9118 3.8699 1.1026 1.8092 1.6539 3.719 1.704 5.7293V25.8827c-.0501.2513-.0501.5026-.1002.7539Zm30.0722 3.116v8.3428H34.6332V.9046h22.7546v8.1418H44.6071v6.4832H56.636v7.9408H44.6071v6.2822h12.7807ZM95.78 28.2951c-1.2028 2.5631-2.9069 4.674-5.1624 6.2822-1.8043 1.2565-3.8091 2.1108-5.9142 2.5632-2.1551.4523-4.3103.7538-6.4655.8543-.6014.0503-1.253.0503-1.8544.0503H64.4548V.8544H77.035c.6015 0 1.2029 0 1.7542.0502 2.1051.1006 4.16.4021 6.215.8544 2.0549.4523 3.9094 1.3067 5.6134 2.5632 2.1552 1.5077 3.8593 3.518 5.0622 6.0309 1.2029 2.5129 1.9046 5.076 2.0549 7.6894.0502.2513.0502.4523.0502.7036v1.5078c-.1504 2.8144-.802 5.4781-2.0049 8.0412Zm-8.2197-9.1972c0-.1507 0-.3015-.0501-.4523-.1003-1.4575-.4511-2.9149-1.0526-4.2719-.6014-1.3569-1.4534-2.4626-2.5561-3.317-.8019-.6534-1.7041-1.1057-2.7065-1.357-1.0024-.2513-2.0048-.3518-3.0573-.402h-3.7591v20.5051c.1003 0 .2506 0 .401.0503.1504 0 .2506.0502.401.0502.1503 0 .3007 0 .4009.0503.1003 0 .2506.0503.3509.0503.4009 0 .8019 0 1.2029-.0503.451 0 .852-.0502 1.2029-.1005 1.0024-.1005 2.0048-.2513 2.957-.5026.9523-.2513 1.8545-.7036 2.6063-1.2062 1.253-.9046 2.1552-2.1108 2.7566-3.6688.6015-1.558.9022-3.1662.9022-4.8247v-.5529Zm54.9317 1.9601c0 .4021-.05.8041-.15 1.2062-.1.8041-.201 1.6082-.451 2.4123-.201.8042-.501 1.6083-.802 2.3622-1.654 3.7693-4.16 6.6842-7.618 8.7951-3.459 2.0605-7.067 3.1159-10.877 3.1159-.25 0-.551 0-.801-.0502-.251 0-.502-.0503-.802-.0503-1.304-.1005-2.607-.3518-3.91-.7036s-2.556-.8544-3.759-1.4575c-3.258-1.7087-5.814-4.1713-7.668-7.3376-1.855-3.1662-2.807-6.4832-2.807-9.9008 0-.5025 0-1.0051.05-1.5077.05-.5026.1-1.0554.251-1.558.2-1.0051.451-2.0103.802-3.0657.35-1.0052.751-2.0103 1.303-2.9652 1.804-3.317 4.26-5.8299 7.468-7.589 3.157-1.759 6.515-2.6133 9.974-2.6133.451 0 .952 0 1.403.0502.501.0503.952.1005 1.403.1005 1.454.201 2.857.5529 4.261 1.0555 1.403.5025 2.756 1.1559 4.059 1.96 2.757 1.8093 4.912 4.1714 6.416 7.1366 1.503 2.9652 2.255 6.0812 2.255 9.2977v1.3067Zm-10.124-2.1108c0-.2513-.05-.4524-.05-.7036-.201-1.6585-.702-3.2668-1.504-4.8248-.802-1.558-1.955-2.7642-3.358-3.6185-.401-.201-.752-.3519-1.153-.5026-.401-.1508-.751-.3016-1.152-.402-.401-.1006-.752-.1509-1.153-.2011-.401-.0503-.752-.1005-1.153-.1005-1.955 0-3.809.603-5.463 1.8595s-2.857 2.915-3.509 4.9755c-.05.1005-.05.1508-.1.2513 0 .1005-.05.1508-.05.2513-.1.3518-.2.7036-.301 1.0554-.1.3518-.15.7539-.25 1.1559-.05.2513-.05.5529-.1.8042 0 .2513-.051.5025-.051.8041v.4523c0 .1508 0 .3016.051.4523.1 2.0606.751 4.0206 1.904 5.8802 1.153 1.8595 2.707 3.0657 4.762 3.6688.25.1005.451.1508.701.201l.752.1508c.251.0503.451.0503.702.1005.25 0 .451.0503.701.0503 2.055 0 3.91-.6031 5.564-1.8596 1.654-1.2061 2.857-2.8647 3.558-4.9252.101-.4021.201-.8041.301-1.2062.1-.4523.15-.8544.201-1.3067.05-.2513.05-.5528.1-.8041 0-.2513.05-.5026.05-.7539v-.9046Zm43.855 19.1482-14.084-19.1985c-.401-.4523-.751-1.0051-1.102-1.6585-.351-.6533-.702-1.3067-1.003-2.0103-.25-.5026-.451-1.0052-.651-1.5077-.201-.5026-.401-.9549-.602-1.357.201 1.2062.351 2.4124.451 3.6688.101 1.2565.151 2.5129.151 3.7191v18.3441h-9.774V.9046h9.774l13.983 19.098c.351.5528.702 1.1056 1.003 1.7087.351.6031.651 1.2062.952 1.8596.251.5026.451 1.0051.702 1.5077.25.5026.451 1.0052.701 1.4575-.05-.4523-.1-.8544-.15-1.2062l-.15-1.2062c-.101-.7539-.151-1.558-.151-2.4124-.05-.8041-.05-1.6585-.05-2.5128V.9549h9.724v37.1907h-9.724v-.0502Zm42.653 0-1.855-6.6843h-14.334l-1.905 6.7345h-10.024L203.489.9549h12.63L229 38.1456h-10.124v-.0502Zm-7.769-26.1843c-.2-.6031-.401-1.2062-.551-1.8596-.151-.6533-.301-1.2564-.451-1.9098-.101-.2512-.151-.4523-.151-.6533-.05-.201-.1-.402-.1-.603l-.15.603c-.05.201-.101.4523-.151.6533-.05.1006-.05.1508-.05.201 0 .0503 0 .1509-.05.2011-.1.6031-.251 1.156-.401 1.7088-.15.5528-.301 1.1056-.451 1.6585l-3.759 12.3131h10.074l-3.809-12.3131Z" fill="#fff"/></svg>