<svg width="158" height="19" viewBox="0 0 158 19" fill="none" xmlns="http://www.w3.org/2000/svg">
<path d="M39.385 9.80445L39.2623 9.92675C38.4031 10.844 37.4211 11.272 36.5006 11.272L38.219 8.27572C39.3236 6.38009 38.2803 4.54562 36.5619 4.54562C35.1504 4.54562 34.0457 5.09596 33.0024 6.93044L32.0819 8.52032L31.3454 9.80445L31.2227 9.92675C29.8725 11.4555 28.5837 12.6785 27.7859 12.6785C27.3563 12.6785 27.1722 12.3727 27.6018 11.7001L31.5295 4.85136H33.0024L33.5548 3.99527H32.0205L33.7389 0.998962H31.8977L30.1793 3.99527H28.5223L27.97 4.85136H29.627L25.9447 11.2109C25.1469 12.5562 25.6993 13.8403 27.1722 13.8403C28.2155 13.8403 29.4429 13.0454 30.5476 11.9447C30.5476 14.2683 33.8002 14.7575 35.7641 12.2504H36.1937C37.2984 12.2504 39.0168 11.5778 39.9374 10.4771C39.9374 10.1713 39.6305 9.92675 39.385 9.80445ZM35.4573 9.92675H35.3959C34.7822 9.92675 34.2912 10.4159 34.2912 11.0274C34.2912 11.272 34.3526 11.4555 34.4753 11.6389V11.7001C33.6161 13.1677 31.5295 12.9231 32.5728 10.9663L33.9844 8.58147L34.8436 7.11388C36.1323 4.91251 37.9121 5.7686 36.8074 7.66423L35.4573 9.92675Z" fill="#766458"/>
<path d="M64.854 9.80421L64.7312 9.9265C63.3811 11.4552 61.7241 12.6782 60.4353 12.6782C59.3306 12.6782 58.6555 11.9444 59.4533 10.4768L59.6374 10.1711C60.8035 10.6603 63.0742 10.4157 64.4244 8.03088L64.6699 7.60284C65.6518 5.89066 64.7312 4.66767 63.197 4.66767C61.7241 4.66767 60.558 5.46261 59.7602 6.80789L57.9804 9.86535L57.8577 9.98766C56.5075 11.5164 55.2187 12.7394 54.4209 12.7394C53.9913 12.7394 53.8072 12.4336 54.2368 11.761L56.8757 7.11364C57.6736 5.70721 56.9371 4.72882 55.8938 4.72882C55.096 4.72882 54.2368 5.15687 53.3162 6.13525L56.262 1.05987H54.4209L49.3271 9.80421L49.2044 9.9265C47.8542 11.4552 46.5654 12.6782 45.7676 12.6782C45.338 12.6782 45.1539 12.3725 45.5835 11.6998L49.5112 4.85112H50.9841L51.5365 3.99503H50.0022L51.7206 0.998718H49.8794L48.1611 3.99503H46.504L45.9517 4.85112H47.6087L43.9265 11.2106C43.1286 12.5559 43.681 13.8401 45.1539 13.8401C45.8903 13.8401 46.6882 13.4732 47.486 12.8617L46.995 13.6566H48.8361L51.5978 8.82582C54.4209 5.27917 55.6483 5.76836 54.9119 7.11364L52.5184 11.2718C51.7206 12.6171 52.2729 13.9012 53.7458 13.9012C54.8505 13.9012 56.0779 13.0451 57.1826 11.9444C57.244 13.1063 58.2259 13.9012 59.6988 13.9012C61.7854 13.9012 63.872 12.3113 65.3449 10.538C65.4063 10.1711 65.0995 9.92651 64.854 9.80421ZM61.3558 7.23594C62.3991 5.40146 64.3016 5.70721 63.197 7.60284L62.9515 8.03088C62.0923 9.49846 60.8649 9.49846 60.1898 9.25386L61.3558 7.23594Z" fill="#766458"/>
<path d="M131.81 9.80442L131.687 9.92672C131.012 10.7217 130.214 11.3943 129.478 11.9446C130.091 10.1713 129.907 7.5419 131.073 5.15708L129.723 4.42329C128.987 5.46283 127.33 7.84765 125.611 9.80442L125.488 9.92672C124.138 11.4554 122.849 12.6784 122.052 12.6784C121.622 12.6784 121.438 12.3727 121.868 11.7L125.795 4.85134H123.954L120.701 10.5382C119.29 11.8223 118.247 12.495 117.878 12.3727C117.449 12.1892 117.878 11.5166 118.124 11.0886L121.683 4.85134H119.842L116.958 9.80442L116.835 9.92672C115.976 10.844 114.994 11.272 114.073 11.272L115.792 8.27569C116.896 6.38007 115.853 4.54559 114.135 4.54559C112.723 4.54559 111.619 5.09593 110.575 6.93041L109.655 8.52029L108.918 9.80442L108.796 9.92672C107.445 11.4554 105.788 12.6784 104.5 12.6784C103.395 12.6784 102.72 11.9446 103.518 10.4771L103.702 10.1713C104.868 10.6605 107.138 10.4159 108.489 8.03109L108.734 7.60305C109.716 5.89087 108.796 4.66789 107.261 4.66789C105.788 4.66789 104.622 5.46283 103.824 6.80811L102.045 9.86557L101.922 9.98787C100.388 11.7612 99.0989 12.8619 97.626 13.4734L101.738 6.44122H100.633C100.633 5.70742 99.8353 4.66789 98.7307 4.66789C97.7487 4.66789 96.3372 5.46283 95.6007 6.80811L93.821 9.86557L93.6982 9.98787C92.3481 11.5166 91.0593 12.7396 90.2615 12.7396C89.8319 12.7396 89.6477 12.4338 90.0773 11.7612L91.9185 8.58144C92.5322 7.48075 92.2253 6.80811 91.673 6.07432L90.6297 4.85134C90.3842 4.54559 90.3842 4.11755 90.7524 3.8118L89.7705 2.77226C88.7272 3.6895 88.6658 4.72904 89.2795 5.58513L89.4636 5.76857C88.6658 6.93041 87.5611 8.45914 86.3337 9.86557L86.211 9.98787C85.3518 10.9051 84.3698 11.3332 83.4493 11.3332L85.1677 8.33684C86.2723 6.44121 85.229 4.60674 83.5106 4.60674C82.0991 4.60674 80.9944 5.15708 79.9511 6.99156L79.0306 8.58144L78.2941 9.86557L78.1714 9.98787C76.6371 11.7612 75.3483 12.8619 73.8754 13.4734L77.9872 6.44122H76.8826C76.8826 5.70742 76.0847 4.66789 74.9801 4.66789C73.9981 4.66789 72.5866 5.46283 71.8501 6.80811L69.2726 11.272C68.4747 12.6173 69.0271 13.9014 70.5 13.9014C70.9909 13.9014 71.6047 13.6568 72.2797 13.2899L71.7888 14.146C69.3339 14.8798 67.7383 15.9193 67.7383 17.2646C67.7383 19.038 70.4386 19.4048 71.7888 17.1423L73.2003 14.7575C74.6732 14.3295 76.0847 13.4122 77.619 12.0058C77.619 14.3295 80.8717 14.8187 82.8356 12.3115H83.2652C84.3698 12.3115 86.0882 11.6389 87.0088 10.5382C87.868 9.49867 88.6044 8.58144 90.0773 6.62466L90.3228 6.93041C90.5683 7.23616 90.6297 7.60305 90.4456 7.96995L88.4817 11.3332C87.6839 12.6784 88.2362 13.9626 89.7091 13.9626C90.6297 13.9626 91.673 13.3511 92.6549 12.495C92.6549 13.3511 93.2073 13.9626 94.2506 13.9626C94.7415 13.9626 95.3553 13.718 96.0303 13.3511L95.6007 14.0849C93.1459 14.8187 91.5502 15.8582 91.5502 17.2035C91.5502 18.9768 94.2506 19.3437 95.6007 17.0812L97.0123 14.6964C98.4852 14.2072 99.9581 13.3511 101.492 11.8835C101.554 13.0453 102.474 13.8403 104.009 13.8403C105.481 13.8403 107.016 12.9842 108.243 11.8835C108.182 14.2683 111.496 14.7575 113.46 12.2504H113.889C114.442 12.2504 115.239 12.0669 115.915 11.7C115.424 12.9842 115.853 13.8403 116.896 13.8403C117.878 13.8403 119.044 12.923 119.904 12.0669C119.72 13.0453 120.333 13.8403 121.499 13.8403C123.034 13.8403 124.752 12.2504 126.286 10.4771C127.33 9.25408 128.25 7.96994 128.925 7.11386C128.189 9.00948 128.618 12.4338 126.839 12.4338C126.225 12.4338 125.979 11.7612 125.979 11.7612L124.813 12.3727C124.813 12.3727 125.12 13.8403 126.839 13.8403C127.023 13.8403 127.145 13.8403 127.33 13.7791H127.391C129.293 13.5345 131.135 12.0669 132.485 10.4771C132.423 10.1713 132.117 9.86557 131.81 9.80442ZM105.481 7.23616C106.525 5.40168 108.427 5.70743 107.323 7.60305L107.077 8.03109C106.218 9.49867 104.991 9.49867 104.315 9.25408L105.481 7.23616ZM70.3772 16.7754C70.009 17.4481 69.3953 17.3869 69.3953 16.8366C69.3953 16.3474 69.8249 15.797 71.2364 15.2467L70.3772 16.7754ZM71.2364 12.6784C70.8068 12.6784 70.6227 12.3727 71.0523 11.7L73.6299 7.23616C74.6118 5.52398 76.5757 5.95202 75.6551 7.60305L74.2436 10.049C73.1389 11.8223 71.9729 12.6784 71.2364 12.6784ZM82.5287 9.92672H82.4673C81.8536 9.92672 81.3627 10.4159 81.3627 11.0274C81.3627 11.272 81.424 11.4555 81.5468 11.6389V11.7C80.6876 13.1676 78.601 12.923 79.6443 10.9663L81.0558 8.58144L81.915 7.11386C83.2038 4.91248 84.9835 5.76857 83.8789 7.6642L82.5287 9.92672ZM94.0665 16.7754C93.6982 17.4481 93.0845 17.3869 93.0845 16.8366C93.0845 16.3474 93.5141 15.797 94.9256 15.2467L94.0665 16.7754ZM94.9256 12.6784C94.4961 12.6784 94.3119 12.3727 94.7415 11.7L97.3191 7.23616C98.3011 5.52398 100.265 5.95202 99.3444 7.60305L97.9328 10.049C96.8281 11.8223 95.6621 12.6784 94.9256 12.6784ZM113.03 9.92672H112.969C112.355 9.92672 111.864 10.4159 111.864 11.0274C111.864 11.272 111.925 11.4555 112.048 11.6389V11.7C111.189 13.1676 109.102 12.923 110.146 10.9663L111.557 8.58144L112.416 7.11386C113.705 4.91248 115.485 5.76857 114.38 7.6642L113.03 9.92672Z" fill="#766458"/>
<path d="M17.8437 7.84692H0.107422V9.06991H17.8437V7.84692Z" fill="#766458"/>
<path d="M157.156 7.84692H139.42V9.06991H157.156V7.84692Z" fill="#766458"/>
</svg>
