<svg width="282" height="214" fill="none" xmlns="http://www.w3.org/2000/svg"><path d="m101.385 42.8044-.123.1223c-.859.9173-1.8409 1.3453-2.7614 1.3453l1.7184-2.9963c1.105-1.8956.061-3.7301-1.6571-3.7301-1.4115 0-2.5162.5504-3.5595 2.3848l-.9205 1.5899-.7365 1.2841-.1227.1223c-1.3502 1.5288-2.639 2.7518-3.4368 2.7518-.4296 0-.6137-.3058-.1841-.9784l3.9277-6.8487h1.4729l.5524-.8561h-1.5343l1.7184-2.9963h-1.8412l-1.7184 2.9963h-1.657l-.5523.8561h1.657l-3.6823 6.3595c-.7978 1.3453-.2454 2.6294 1.2275 2.6294 1.0433 0 2.2707-.7949 3.3754-1.8956 0 2.3236 3.2526 2.8128 5.2165.3057h.4296c1.1047 0 2.8233-.6726 3.7433-1.7733 0-.3058-.307-.5504-.552-.6727Zm-3.9277.1223h-.0614c-.6137 0-1.1047.4892-1.1047 1.1007 0 .2446.0614.4281.1841.6115v.0612c-.8592 1.4676-2.9458 1.223-1.9025-.7338l1.4116-2.3848.8592-1.4676c1.2887-2.2014 3.0685-1.3453 1.9638.5503l-1.3501 2.2625ZM126.854 42.8042l-.123.1223c-1.35 1.5287-3.007 2.7517-4.296 2.7517-1.104 0-1.779-.7338-.982-2.2014l.184-.3057c1.166.4892 3.437.2446 4.787-2.1402l.246-.4281c.982-1.7121.061-2.9351-1.473-2.9351-1.473 0-2.639.7949-3.437 2.1402l-1.78 3.0575-.122.1223c-1.35 1.5287-2.639 2.7517-3.437 2.7517-.43 0-.614-.3058-.184-.9784l2.639-4.6474c.798-1.4064.061-2.3848-.982-2.3848-.798 0-1.657.4281-2.578 1.4065l2.946-5.0754h-1.841l-5.094 8.7443-.123.1223c-1.35 1.5287-2.639 2.7517-3.436 2.7517-.43 0-.614-.3057-.185-.9784l3.928-6.8487h1.473l.552-.8561h-1.534l1.719-2.9963h-1.842l-1.718 2.9963h-1.657l-.552.8561h1.657l-3.683 6.3595c-.797 1.3453-.245 2.6295 1.228 2.6295.736 0 1.534-.3669 2.332-.9784l-.491.7949h1.841l2.762-4.8308c2.823-3.5466 4.05-3.0574 3.314-1.7122l-2.394 4.1582c-.797 1.3453-.245 2.6294 1.228 2.6294 1.105 0 2.332-.8561 3.437-1.9568.061 1.1619 1.043 1.9568 2.516 1.9568 2.086 0 4.173-1.5899 5.646-3.3632.061-.3669-.246-.6115-.491-.7338Zm-3.498-2.5683c1.043-1.8344 2.946-1.5287 1.841.3669l-.246.4281c-.859 1.4676-2.086 1.4676-2.761 1.223l1.166-2.018ZM193.81 42.8044l-.123.1223c-.675.795-1.473 1.4676-2.209 2.0179.613-1.7733.429-4.4027 1.595-6.7875l-1.35-.7338c-.736 1.0395-2.393 3.4243-4.112 5.3811l-.123.1223c-1.35 1.5287-2.639 2.7517-3.436 2.7517-.43 0-.614-.3057-.184-.9784l3.927-6.8487h-1.841l-3.253 5.6869c-1.411 1.2841-2.454 1.9568-2.823 1.8345-.429-.1835 0-.8561.246-1.2841l3.559-6.2373h-1.841l-2.884 4.9531-.123.1223c-.859.9173-1.841 1.3453-2.762 1.3453l1.719-2.9963c1.104-1.8956.061-3.7301-1.657-3.7301-1.412 0-2.516.5503-3.56 2.3848l-.92 1.5899-.737 1.2841-.122.1223c-1.351 1.5287-3.008 2.7517-4.296 2.7517-1.105 0-1.78-.7338-.982-2.2013l.184-.3058c1.166.4892 3.436.2446 4.787-2.1402l.245-.428c.982-1.7122.062-2.9352-1.473-2.9352-1.473 0-2.639.7949-3.437 2.1402l-1.779 3.0575-.123.1223c-1.534 1.7733-2.823 2.874-4.296 3.4855l4.112-7.0322h-1.105c0-.7338-.798-1.7733-1.902-1.7733-.982 0-2.394.7949-3.13 2.1402l-1.78 3.0575-.123.1223c-1.35 1.5287-2.639 2.7517-3.437 2.7517-.429 0-.613-.3058-.184-.9784l1.841-3.1798c.614-1.1006.307-1.7733-.245-2.5071l-1.043-1.223c-.246-.3057-.246-.7338.122-1.0395l-.982-1.0395c-1.043.9172-1.104 1.9567-.49 2.8128l.184.1835c-.798 1.1618-1.903 2.6905-3.13 4.097l-.123.1223c-.859.9172-1.841 1.3453-2.762 1.3453l1.719-2.9964c1.104-1.8956.061-3.7301-1.657-3.7301-1.412 0-2.517.5504-3.56 2.3849l-.92 1.5898-.737 1.2842-.123.1223c-1.534 1.7733-2.823 2.874-4.296 3.4855l4.112-7.0322h-1.104c0-.7338-.798-1.7733-1.903-1.7733-.982 0-2.393.7949-3.13 2.1402l-2.577 4.4639c-.798 1.3453-.246 2.6294 1.227 2.6294.491 0 1.105-.2446 1.78-.6115l-.491.8561c-2.455.7338-4.051 1.7733-4.051 3.1186 0 1.7734 2.701 2.1402 4.051-.1223l1.411-2.3848c1.473-.428 2.885-1.3453 4.419-2.7517 0 2.3237 3.253 2.8129 5.217.3057h.429c1.105 0 2.823-.6726 3.744-1.7733.859-1.0395 1.595-1.9568 3.068-3.9135l.246.3057c.245.3058.307.6727.123 1.0395l-1.964 3.3633c-.798 1.3452-.246 2.6294 1.227 2.6294.921 0 1.964-.6115 2.946-1.4676 0 .8561.552 1.4676 1.596 1.4676.491 0 1.104-.2446 1.779-.6115l-.429.7338c-2.455.7338-4.051 1.7733-4.051 3.1186 0 1.7733 2.701 2.1402 4.051-.1223l1.411-2.3848c1.473-.4892 2.946-1.3453 4.48-2.8129.062 1.1618.982 1.9568 2.517 1.9568 1.472 0 3.007-.8561 4.234-1.9568-.061 2.3848 3.253 2.874 5.217.3669h.429c.553 0 1.35-.1835 2.026-.5504-.491 1.2842-.062 2.1403.981 2.1403.982 0 2.148-.9173 3.008-1.7734-.184.9784.429 1.7734 1.595 1.7734 1.535 0 3.253-1.5899 4.787-3.3632 1.044-1.223 1.964-2.5072 2.639-3.3632-.736 1.8956-.307 5.3199-2.086 5.3199-.614 0-.86-.6726-.86-.6726l-1.166.6115s.307 1.4676 2.026 1.4676c.184 0 .306 0 .491-.0612h.061c1.902-.2446 3.744-1.7122 5.094-3.302-.062-.3058-.368-.6115-.675-.6727Zm-26.329-2.5682c1.044-1.8345 2.946-1.5288 1.842.3669l-.246.428c-.859 1.4676-2.086 1.4676-2.762 1.223l1.166-2.0179Zm-35.104 9.5392c-.368.6727-.982.6115-.982.0612 0-.4892.43-1.0396 1.841-1.5899l-.859 1.5287Zm.859-4.097c-.429 0-.613-.3057-.184-.9784l2.578-4.4638c.982-1.7122 2.946-1.2842 2.025.3669l-1.411 2.4459c-1.105 1.7733-2.271 2.6294-3.008 2.6294Zm11.293-2.7517h-.062c-.613 0-1.104.4892-1.104 1.1007 0 .2446.061.4281.184.6115V44.7c-.859 1.4676-2.946 1.223-1.903-.7337l1.412-2.3849.859-1.4675c1.289-2.2014 3.069-1.3453 1.964.5503l-1.35 2.2625Zm11.537 6.8487c-.368.6727-.981.6115-.981.0612 0-.4892.429-1.0396 1.841-1.5899l-.86 1.5287Zm.86-4.097c-.43 0-.614-.3057-.184-.9784l2.577-4.4638c.982-1.7122 2.946-1.2842 2.025.3669l-1.411 2.4459c-1.105 1.7733-2.271 2.6294-3.007 2.6294Zm18.104-2.7517h-.061c-.614 0-1.105.4892-1.105 1.1007 0 .2446.061.4281.184.6115V44.7c-.859 1.4676-2.946 1.223-1.902-.7337l1.411-2.3849.859-1.4675c1.289-2.2014 3.069-1.3453 1.964.5503l-1.35 2.2625ZM79.8437 40.8469H62.1074v1.223h17.7363v-1.223ZM219.156 40.8469H201.42v1.223h17.736v-1.223Z" fill="#766458"/><path d="M100.035 0h4.725l-.736 27.456h-8.8988l-1.2274-11.3126-1.2274 11.3126h-8.9602L83.0351 0h4.6642l.3682 22.7475h.491L91.5657 0h4.6642l3.0072 22.7475h.4909L100.035 0ZM119.551 22.7475v4.7696h-12.827V0h12.827v4.7085h-8.163v6.6041h6.506v4.7085h-6.506v6.6653h8.163v.0611ZM132.684 22.7475v4.7696h-11.231V0h4.665v22.7475h6.566ZM143.101 17.3664l4.726-1.1007v8.3163c0 1.5899-1.351 2.874-2.885 2.874h-7.058c-1.595 0-2.884-1.3453-2.884-2.874V2.874C135 1.2841 136.289 0 137.884 0h7.058c1.534 0 2.885 1.2841 2.885 2.874v5.5646l-4.726 1.1007v-4.892h-3.375v18.0391h3.375v-5.32ZM160.117 0c1.534 0 2.884 1.2841 2.884 2.874v21.6468c0 1.5899-1.35 2.874-2.884 2.874h-7.058c-1.595 0-2.884-1.3452-2.884-2.874V2.874c0-1.5899 1.289-2.874 2.884-2.874h7.058Zm-1.841 4.7085h-3.375v18.039h3.375V4.7085ZM178.344 0h4.665v27.456h-4.665V13.942l-1.902 6.971h-4.603l-1.841-6.971v13.514h-4.664V0h4.664l4.173 13.2694L178.344 0ZM198.167 22.7475v4.7696h-12.826V0h12.826v4.7085h-8.162v6.6041h6.505v4.7085h-6.505v6.6653h8.162v.0611Z" fill="#81B3D3"/><path d="M27.1874 96.3723c-2.2094-1.8345-4.9711-3.0575-7.9169-3.0575-2.2093 0-5.0938 1.2841-5.0938 3.8524 0 2.6906 3.2527 3.7298 5.2779 4.3418l3.0686.917c6.3826 1.896 11.3536 5.075 11.3536 12.474 0 4.525-1.1047 9.234-4.7255 12.291-3.6209 3.058-8.4079 4.281-13.0107 4.281-5.7689 0-11.4764-1.957-16.1406-5.198l4.971-9.478c3.0072 2.63 6.5054 4.709 10.6172 4.709 2.8231 0 5.7689-1.407 5.7689-4.587 0-3.363-4.6642-4.464-7.2418-5.197-7.4872-2.202-12.397-4.097-12.397-12.9639 0-9.2947 6.6282-15.3485 15.8338-15.3485 4.6029 0 10.3104 1.4676 14.3609 3.7913l-4.7256 9.1724ZM56.2158 94.6602v7.6438h13.4403v10.089H56.2158v7.889h14.2381v10.089H44.3098V84.6317h26.1441v10.0896l-14.2381-.0611ZM79.2914 84.6317h16.9384c12.7652 0 23.3212 10.0285 23.3212 22.8703 0 12.841-10.617 22.869-23.3212 22.869H79.2914V84.6317Zm11.9673 35.6503h2.7004c7.1189 0 13.1949-3.914 13.1949-12.78 0-8.1945-5.401-12.7807-13.0722-12.7807h-2.8231v25.5607ZM175.951 106.645c0 14.798-10.679 25.255-25.408 25.255-14.729 0-25.407-10.457-25.407-25.255 0-13.8195 12.212-23.5422 25.407-23.5422s25.408 9.7227 25.408 23.5422Zm-38.418.061c0 7.889 5.83 13.637 12.949 13.637s12.949-5.748 12.949-13.637c0-6.298-5.83-12.1071-12.949-12.1071-7.058 0-12.949 5.8091-12.949 12.1071ZM182.272 84.6317h11.967l21.848 28.0063h.123V84.6317h11.968v45.7393H216.21l-21.848-28.067h-.123v28.067h-11.967V84.6317ZM249.842 122.422l-3.192 7.949h-12.642l17.675-45.7393h13.01L282 130.371h-12.704l-3.007-7.949h-16.447Zm8.346-23.6648h-.123l-4.909 14.5538h9.942l-4.91-14.5538ZM66.2196 175.926c4.7255-1.59 5.0324-7.46.4296-7.46-1.2888 0-2.8231.917-3.8664 2.69l-6.2599 10.824c-.3068.489-.5523.917-.9205 1.345-1.5957-2.201-1.1661-5.504 1.1046-6.971l-.9205-1.162c-4.9097 3.119-3.4368 12.046 4.7256 12.046 6.9349 0 10.1875-8.316 5.7075-11.312Zm-5.7689 9.539c-1.4116 0-2.4549-.306-3.3754-.795.4296-.489.7978-1.039 1.166-1.651l3.9278-6.787.6137.061c5.462 1.162 3.314 9.172-2.3321 9.172Zm2.5162-10.579 1.9025-3.241c1.7184-2.935 3.8664-1.223 2.7003.979-.9205 1.712-2.2093 2.201-4.6028 2.262Z" fill="#fff"/><path d="M85.9196 183.448c-.3682 1.346.3682 2.507 1.9025 2.507.9206 0 2.0866-.611 3.2527-1.528.1227.917.8591 1.528 2.0252 1.528 1.2274 0 2.5776-.856 3.9278-2.079-.2455 1.223.3068 2.079 1.4729 2.079 1.2887 0 2.7003-1.161 3.8053-2.201-.246 1.223.491 2.201 1.964 2.201 1.902 0 4.111-2.079 6.075-4.28 0-.061-.061-.061-.061-.122 1.289-1.468 2.393-3.058 3.253-4.159-.921 2.385-.43 6.727-2.639 6.727-.798 0-1.105-.856-1.105-.856l-1.473.734s.43 1.895 2.578 1.895c.245 0 .429 0 .675-.061h.061c1.718-.245 3.375-1.284 4.848-2.568.062 1.529 1.228 2.629 3.13 2.629 2.639 0 5.278-2.079 7.181-4.28-.184-.306-.553-.673-.859-.795l-.185.183c-1.657 1.957-3.805 3.486-5.462 3.486-1.411 0-2.27-.917-1.227-2.752l.245-.428c1.473.611 4.296.306 6.076-2.691l.307-.55c1.227-2.14.061-3.73-1.841-3.73-1.903 0-3.376.978-4.357 2.691l-2.271 3.852h-.062l-.184.183c-.859.979-1.902 1.896-2.823 2.508.737-2.202.553-5.626 2.026-8.561l-1.719-.918c-.982 1.346-3.068 4.342-5.155 6.788l.061.061-.061.122c-1.657 1.957-3.314 3.486-4.357 3.486-.491 0-.798-.367-.246-1.284l4.971-8.683h-2.332l-4.112 7.215c-1.78 1.59-3.13 2.507-3.5593 2.324-.5523-.245 0-1.101.3069-1.59l4.5414-7.888h-2.332l-3.6823 6.359c-.0614-.061-.1228-.061-.1842-.122l-.1841.183c-1.657 1.957-3.314 3.486-4.3573 3.486-.491 0-.7978-.367-.2455-1.284l3.7436-6.543h-1.3501c.0613-.979-.9206-2.324-2.4549-2.324-1.2274 0-3.0072.979-3.9891 2.691l-2.3321 4.036c-.1227-.123-.2455-.184-.3682-.245l-.1841.183c-1.657 1.957-3.805 3.486-5.4621 3.486-1.4115 0-2.2707-.917-1.2274-2.752l2.3935-4.158c1.3502-2.324 3.7436-1.896 2.3321.489l-.3069.551h1.9025l.3069-.551c1.2274-2.14.0614-3.73-1.8411-3.73-1.9025 0-3.3754.979-4.3574 2.691l-2.3321 3.974c-.0613-.061-.1227-.061-.1841-.122l-.1841.184c-1.657 1.956-3.805 3.485-5.462 3.485-1.4116 0-2.2708-.917-1.2274-2.752l.2454-.428c1.4729.612 4.296.306 6.0758-2.69l.3068-.551c1.2274-2.14.0614-3.73-1.8411-3.73-1.9025 0-3.3754.979-4.3574 2.691l-2.4548 4.158c-1.4729 2.446-.1841 4.77 2.5776 4.77 2.0252 0 4.1118-1.223 5.7689-2.813-.0614 1.59 1.166 2.813 3.1299 2.813 1.9639-.123 3.8664-1.223 5.5234-2.63Zm35.5954-5.87c1.35-2.324 3.743-1.896 2.332.489l-.307.55c-1.105 1.896-2.639 1.835-3.498 1.529l1.473-2.568Zm-33.2633 5.687 3.2527-5.626c1.2274-2.14 3.7436-1.59 2.5775.489l-1.8411 3.18c-1.4115 2.201-2.8231 3.241-3.7436 3.241-.491-.061-.7979-.367-.2455-1.284Zm-14.8518-5.687c1.3502-2.324 3.7436-1.896 2.3321.489l-.3069.55c-1.1046 1.896-2.6389 1.835-3.4981 1.529l1.4729-2.568ZM152.323 185.954c2.639 0 5.278-2.079 7.18-4.28-.184-.306-.552-.673-.859-.795l-.184.183c-1.657 1.957-3.805 3.486-5.462 3.486-1.411 0-2.271-.918-1.227-2.752l.245-.428c1.473.611 4.296.306 6.076-2.691l.307-.55c1.227-2.14.061-3.73-1.841-3.73-1.903 0-3.376.978-4.358 2.69l-2.27 3.853s-.062 0-.062-.061l-.184.183c-1.657 1.957-3.314 3.486-4.357 3.486-.491 0-.798-.367-.246-1.285l3.376-5.87c.982-1.773.061-3.057-1.228-3.057-.982 0-2.086.55-3.252 1.773l3.743-6.421h-2.393l-6.567 11.313c-.061-.061-.184-.122-.245-.184l-.185.184c-1.657 1.957-3.314 3.485-4.357 3.485-.491 0-.798-.366-.245-1.284l4.971-8.683h1.902l.675-1.101h-1.902l2.209-3.791h-2.332l-2.209 3.791h-2.087l-.675 1.101h2.148l-4.664 8.072c-.982 1.712-.307 3.302 1.595 3.302 1.166 0 2.394-.734 3.683-1.835l-.921 1.59h2.332l3.56-6.115c3.559-4.464 5.155-3.913 4.173-2.201l-3.007 5.259c-.982 1.712-.307 3.302 1.595 3.302 1.412 0 3.008-1.101 4.48-2.568 0 1.528 1.167 2.629 3.069 2.629Zm1.903-8.377c1.35-2.324 3.743-1.896 2.332.489l-.307.55c-1.105 1.896-2.639 1.835-3.498 1.529l1.473-2.568ZM222.9 180.879l-.184.184c-1.657 1.956-3.314 3.485-4.358 3.485-.491 0-.797-.367-.245-1.284l7.855-13.575h-2.332l-3.437 5.87c-.429-.673-1.166-1.223-2.148-1.223-1.227 0-3.007.979-3.989 2.691l-2.27 3.913c-.062 0-.123-.061-.123-.061l-.184.184c-1.657 1.956-3.314 3.485-4.358 3.485-.491 0-.797-.367-.245-1.284l3.375-5.87c.982-1.774.062-3.058-1.227-3.058-.982 0-2.087.55-3.253 1.712l.859-1.528h-2.332l-3.743 6.42c-.062-.061-.123-.122-.246-.122l-.184.183c-1.657 1.957-3.314 3.486-4.357 3.486-.491 0-.798-.367-.246-1.284l3.744-6.543h-1.166c.061-.979-.921-2.324-2.455-2.324-1.227 0-3.007.979-3.989 2.691l-2.271 3.852-.123.122c-1.657 1.957-3.314 3.486-4.357 3.486-.491 0-.798-.367-.245-1.284l2.332-4.036c.798-1.407.429-2.201-.307-3.119l-1.289-1.59c-.307-.428-.307-.917.123-1.345l-1.228-1.345c-1.35 1.162-1.411 2.507-.613 3.547l.184.244c-1.044 1.468-2.394 3.424-3.928 5.198.061.061.123.122.184.183-1.902 2.202-3.559 3.608-5.4 4.403l2.945-5.014h-2.27l-.246.428c-1.227 2.14-2.639 3.73-4.48 3.73-1.596 0-1.902-1.59-.491-3.975l.675-1.162c.43.062.859.123 1.35.123 8.285 0 12.275-11.068 4.971-11.068-1.288 0-2.823.917-3.866 2.69l-3.621 6.237c-1.35-.733-2.087-2.017-2.087-3.302 0-1.1.491-2.14 1.473-2.935l-.736-1.345c-1.657 1.162-2.394 2.752-2.394 4.342 0 1.834 1.044 3.607 2.946 4.586l-.675 1.223c-1.657 2.813-1.35 5.931 1.964 5.931.982 0 1.841-.306 2.516-.734l-.613 1.04c-3.13.978-5.094 2.201-5.094 3.975 0 2.201 3.437 2.69 5.094-.184l1.779-3.057c2.394-.734 4.787-2.385 7.365-5.381-.062-.062-.062-.123-.123-.245 1.043-1.223 1.903-2.385 3.682-4.77l.307.367c.307.367.43.856.123 1.346l-2.455 4.28c-.982 1.712-.307 3.302 1.596 3.302 1.166 0 2.455-.734 3.682-1.834 0 1.039.675 1.834 2.025 1.834.921 0 2.087-.611 3.253-1.529.123.918.859 1.529 2.025 1.529 1.105 0 2.332-.673 3.498-1.712l-.859 1.467h2.332l3.56-6.176c3.559-4.464 5.155-3.852 4.112-2.14l-3.008 5.259c-.981 1.712-.306 3.302 1.596 3.302 1.227 0 2.578-.856 3.928-2.018-.123 1.162.614 2.018 2.025 2.018.921 0 2.087-.611 3.253-1.529.122.918.859 1.529 2.025 1.529 1.902 0 4.112-2.079 6.076-4.28-.246-.123-.675-.49-.982-.612Zm-47.808-8.683c.675-1.162 1.473-1.712 2.086-1.712 3.683 0 1.105 7.521-4.971 7.521h-.491l3.376-5.809Zm-4.971 17.489c-.491.856-1.289.733-1.289.122 0-.612.552-1.284 2.332-1.957l-1.043 1.835Zm24.364-8.439c-1.412 2.201-2.823 3.241-3.744 3.241-.491 0-.797-.367-.245-1.284l3.253-5.626c1.227-2.14 3.743-1.59 2.577.489l-1.841 3.18Zm22.523-.122c-1.411 2.323-2.823 3.363-3.805 3.363-.491 0-.798-.367-.245-1.284l3.252-5.626c1.228-2.14 3.744-1.59 2.578.489l-1.78 3.058ZM145.143 202.893l-.184.183c-1.657 1.957-3.314 3.485-4.358 3.485-.491 0-.798-.366-.245-1.284l3.375-5.87c.982-1.773.062-3.057-1.227-3.057-.982 0-2.087.55-3.253 1.712l.859-1.529h-2.332l-3.743 6.482c-.123-.061-.185-.122-.307-.184l-.184.184c-1.044 1.162-2.333 1.712-3.499 1.712l2.21-3.791c1.411-2.446.123-4.709-2.087-4.709-1.78 0-3.191.734-4.541 3.058l-1.166 1.957-.982 1.712c-.062-.061-.123-.061-.184-.123l-.184.184c-1.903 2.201-3.56 3.608-5.401 4.403l6.382-10.885h-2.332l-4.112 7.154c-1.779 1.652-3.191 2.569-3.62 2.385-.553-.244 0-1.1.306-1.59l4.542-7.888h-2.332l-3.744 6.421c-.061-.061-.123-.061-.184-.122l-.184.183c-1.657 1.957-3.314 3.485-4.357 3.485-.491 0-.798-.366-.246-1.284l3.376-5.87c.981-1.773.061-3.057-1.228-3.057-.982 0-2.087.55-3.253 1.712l.86-1.529h-2.332l-3.744 6.421c-.061-.061-.123-.123-.246-.123l-.184.184c-1.6567 1.957-3.3137 3.485-4.357 3.485-.491 0-.7979-.367-.2455-1.284l3.7435-6.543h-1.3501c.0614-.978-.9205-2.323-2.4548-2.323-1.2274 0-3.0072.978-3.9891 2.69l-2.3935 4.158c-.1841-.122-.3682-.244-.491-.305l-.1841.183c-1.657 1.957-3.7436 3.485-6.0143 3.485-1.5957 0-2.5776-1.589-1.1661-3.974l.6751-1.162c.4296.061.8592.122 1.3502.122 2.4548 0 5.2779-1.284 7.119-4.464.6751-1.161.9206-2.201.9206-3.118 0-2.079-1.3502-3.486-3.0686-3.486-1.2888 0-2.8231.917-3.8664 2.691l-3.6209 6.237c-1.3501-.734-2.0866-2.018-2.0866-3.302 0-1.101.491-2.14 1.4729-2.935l-.7364-1.345c-1.657 1.161-2.3935 2.751-2.3935 4.341 0 1.835 1.0433 3.608 2.9458 4.586l-.6751 1.223c-1.657 2.813-.675 5.932 2.639 5.932 2.5776 0 4.5414-1.162 6.1371-2.691-.491 1.468.2455 2.691 1.9025 2.691.9206 0 2.0866-.612 3.2527-1.529.1227.917.8592 1.529 2.0252 1.529 1.1047 0 2.3321-.673 3.4982-1.712l-.8592 1.467h2.3324l3.559-6.176c3.56-4.464 5.155-3.852 4.112-2.14l-3.007 5.259c-.982 1.712-.307 3.302 1.596 3.302 1.227 0 2.638-.856 3.989-2.079-.307 1.284.306 2.079 1.473 2.079 1.104 0 2.393-.917 3.436-1.896l-1.288 2.202c-3.13.917-5.156 2.201-5.156 3.974 0 2.202 3.437 2.691 5.094-.183l1.78-3.058c1.964-.611 3.866-1.834 5.892-3.791-.307 3.241 3.989 3.975 6.628.673h.491c.859 0 2.025-.306 3.068-.918l-1.534 2.691h2.332l3.559-6.176c3.56-4.464 5.156-3.852 4.112-2.14l-3.007 5.259c-.982 1.712-.307 3.302 1.596 3.302 1.902 0 4.112-2.079 6.076-4.281-.062-.183-.491-.55-.798-.672Zm-57.9346-8.684c.6751-1.161 1.4729-1.712 2.0867-1.712.8591 0 1.2887.551 1.2887 1.407 0 2.14-2.6389 6.053-6.2598 6.053h-.491l3.3754-5.748Zm8.2238 9.05c-1.4116 2.202-2.8231 3.241-3.7437 3.241-.4909 0-.7978-.367-.2455-1.284l3.2527-5.626c1.2274-2.14 3.7436-1.589 2.5776.49l-1.8411 3.179Zm17.6748 8.439c-.491.856-1.289.734-1.289.122 0-.611.553-1.284 2.332-1.956l-1.043 1.834Zm15.711-8.683h-.123c-.736 0-1.35.611-1.35 1.406 0 .306.061.551.246.795v.061c-1.105 1.896-3.744 1.529-2.394-.917l1.78-3.057 1.105-1.896c1.657-2.752 3.866-1.651 2.454.734l-1.718 2.874ZM199.088 203.688c-.123-.366-.552-.733-.859-.795l-.184.184c-.86.978-1.903 1.896-2.824 2.507.737-2.201.553-5.626 2.026-8.561l-1.719-.917c-.982 1.345-3.068 4.342-5.155 6.787l-.184.184c-1.657 1.957-3.314 3.485-4.357 3.485-.491 0-.982-.489-.982-1.589v-.979c1.657.184 3.375-.856 4.48-2.752l.614-1.1c2.148-3.73-1.351-4.953-3.744-2.752l3.314-5.748h-2.332l-6.628 11.496c-.123-.122-.307-.245-.43-.306l-.184.184c-1.657 1.957-3.805 3.485-5.462 3.485-1.411 0-2.271-.917-1.227-2.751l2.393-4.159c1.35-2.323 3.744-1.895 2.332.49l-.307.55h1.903l.307-.55c1.227-2.141.061-3.73-1.841-3.73-1.903 0-3.376.978-4.358 2.69l-2.271 3.914c-.061 0-.122-.062-.122-.062l-.184.184c-1.657 1.957-3.314 3.485-4.358 3.485-.491 0-.798-.366-.245-1.284l4.971-8.683h-2.332l-4.112 7.216c-1.78 1.59-3.13 2.507-3.56 2.323-.552-.244 0-1.1.307-1.589l4.542-7.889h-2.332l-4.542 7.766c-.491.428-1.043.856-1.473 1.223.737-2.201.553-5.626 2.025-8.561l-1.718-.917c-.982 1.345-6.321 8.439-8.469 10.885.184.305.552.55.859.795 1.35-1.529 5.769-7.216 6.567-8.317-.921 2.385-.43 6.727-2.639 6.727-.798 0-1.105-.856-1.105-.856l-1.473.733s.43 1.896 2.578 1.896c.245 0 .429 0 .675-.061h.061c1.166-.184 2.332-.673 3.437-1.468 0 .918.552 1.529 1.534 1.529 1.289 0 2.701-1.162 3.805-2.201-.245 1.223.491 2.201 1.964 2.201 1.473 0 3.069-1.162 4.603-2.691 0 1.529 1.227 2.691 3.13 2.691 1.902 0 3.744-1.04 5.401-2.446l-1.289 2.263h2.332l2.639-4.587v1.835c0 1.957.368 2.996 2.271 2.996 1.902 0 4.111-2.079 6.075-4.28 1.351-1.529 2.455-3.119 3.314-4.22-.92 2.385-.429 6.727-2.639 6.727-.797 0-1.104-.856-1.104-.856l-1.473.734s.429 1.895 2.577 1.895c.246 0 .43 0 .676-.061h.061c2.332-.428 4.725-2.324 6.444-4.342Zm-15.466-1.834.675-1.162c2.701-3.73 4.542-2.69 3.683-1.284l-1.105 1.896c-.675 1.223-2.7 2.079-3.253.55ZM199.026 205.278c-.736 0-1.35.612-1.35 1.345 0 .734.553 1.346 1.35 1.346.737 0 1.351-.551 1.351-1.346 0-.733-.614-1.345-1.351-1.345ZM199.149 204.36h2.332l7.304-12.658h-2.333l-7.303 12.658ZM49.2196 169.751c0 .183-.0614.366-.1228.55-.0614.183-.1841.367-.3068.489-.1228.122-.3069.245-.491.367-.1841.061-.4296.122-.6751.122-.3068 0-.5523-.061-.7978-.183-.2455-.122-.491-.245-.6751-.428-.1841-.184-.2455-.367-.3682-.612-.0614-.244-.1228-.489-.1228-.795 0-.55.1228-.978.3069-1.467.1841-.428.4296-.856.7978-1.162.1228-.122.3069-.306.491-.428.1841-.122.3682-.245.5523-.306.1841-.061.3069-.183.4296-.244.1228-.062.1841-.062.2455-.123l.8592 1.223c-.1227.061-.3069.123-.491.245-.1841.061-.3682.183-.5523.306-.1841.122-.3069.305-.4296.489-.1228.183-.1841.367-.1841.611.4296 0 .7364.123 1.0433.367.3682.184.491.551.491.979Zm4.8483 0c0 .183-.0614.366-.1228.55-.0613.183-.1841.367-.3068.489-.1228.122-.3069.245-.491.367-.1841.061-.4296.122-.6751.122-.3068 0-.5523-.061-.7978-.183-.2455-.122-.491-.245-.6751-.428-.1227-.184-.2455-.367-.3682-.612-.0614-.244-.1228-.489-.1228-.795 0-.55.1228-.978.3069-1.467.1841-.428.4296-.856.7978-1.162.1228-.122.3069-.306.491-.428.1841-.122.3682-.245.5523-.306.1841-.061.3069-.183.4296-.244.1228-.062.1841-.062.2455-.123l.8592 1.223c-.1227.061-.3068.123-.491.245-.1841.061-.3682.183-.5523.306-.1841.122-.3069.305-.4296.489-.1227.183-.1841.367-.1841.611.4296 0 .7364.123 1.0433.367.3069.184.491.551.491.979ZM216.763 205.767c0-.183.061-.367.122-.55.062-.184.184-.367.307-.489.123-.123.307-.245.491-.367.184-.061.43-.122.675-.122.307 0 .553.061.798.183.246.122.491.245.675.428.184.183.246.367.368.612.062.244.123.489.123.794 0 .551-.123.979-.307 1.468-.184.428-.429.856-.798 1.162-.122.122-.306.306-.491.428-.184.122-.368.244-.552.306-.184.061-.307.183-.429.244-.123.061-.185.061-.246.123l-.859-1.223c.123-.062.307-.123.491-.245.184-.061.368-.183.552-.306.184-.122.307-.306.43-.489s.184-.367.184-.611c-.43 0-.737-.123-1.043-.367-.307-.184-.491-.551-.491-.979Zm-4.787 0c0-.183.061-.367.122-.55.062-.184.184-.367.307-.489.123-.123.307-.245.491-.367.184-.061.43-.122.675-.122.307 0 .553.061.798.183.246.122.491.245.675.428.123.183.246.367.368.612.062.244.123.489.123.794 0 .551-.123.979-.307 1.468-.184.428-.429.856-.798 1.162-.122.122-.306.306-.49.428-.185.122-.369.244-.553.306-.184.061-.307.183-.429.244-.123.061-.185.061-.246.123l-.859-1.223c.184-.062.307-.123.491-.245.184-.061.368-.183.552-.306.184-.122.307-.306.43-.489s.184-.367.184-.611c-.43 0-.737-.123-1.043-.367-.369-.184-.491-.551-.491-.979Z" fill="#fff"/></svg>