<svg width="116" height="28" viewBox="0 0 116 28" fill="none" xmlns="http://www.w3.org/2000/svg">
<path d="M17.0349 0H21.7605L21.024 27.456H12.1252L10.8978 16.1434L9.67037 27.456H0.710203L0.0351181 0H4.69932L5.06754 22.7475H5.55851L8.56569 0H13.2299L16.2371 22.7475H16.728L17.0349 0Z" fill="#81B3D3"/>
<path d="M36.5508 22.7475V27.5171H23.7243V0H36.5508V4.70849H28.3885V11.3126H34.8938V16.0211H28.3885V22.6864H36.5508V22.7475Z" fill="#81B3D3"/>
<path d="M49.6842 22.7475V27.5171H38.4533V0H43.1175V22.7475H49.6842Z" fill="#81B3D3"/>
<path d="M59.6263 17.3664L64.3519 16.2657V24.582C64.3519 26.1719 63.0017 27.456 61.4675 27.456H54.4098C52.8141 27.456 51.5253 26.1107 51.5253 24.582V2.87401C51.5253 1.28413 52.8141 0 54.4098 0H61.4675C63.0017 0 64.3519 1.28413 64.3519 2.87401V8.43859L59.6263 9.53928V4.64734H56.2509V22.6864H59.6263V17.3664Z" fill="#81B3D3"/>
<path d="M77.117 0C78.6513 0 80.0015 1.28413 80.0015 2.87401V24.5208C80.0015 26.1107 78.6513 27.3948 77.117 27.3948H70.0594C68.4637 27.3948 67.1749 26.0496 67.1749 24.5208V2.87401C67.1749 1.28413 68.4637 0 70.0594 0H77.117ZM75.2759 4.70849H71.9005V22.7475H75.2759V4.70849Z" fill="#81B3D3"/>
<path d="M95.3443 0H100.009V27.456H95.3443V13.942L93.4418 20.913H88.839L86.9979 13.942V27.456H82.3336V0H86.9979L91.1711 13.2694L95.3443 0Z" fill="#81B3D3"/>
<path d="M115.167 22.7475V27.5171H102.341V0H115.167V4.70849H107.005V11.3126H113.51V16.0211H107.005V22.6864H115.167V22.7475Z" fill="#81B3D3"/>
</svg>
