<svg width="32" height="32" fill="none" xmlns="http://www.w3.org/2000/svg"><path fill="#81B3D3" d="M0 0h32v32H0z"/><path d="M10.7231 19.7434c.0226.0222.034.0441.034.0662.0229 0 .0454.0108.068.033.6127.6595 1.3051 1.2752 2.0767 1.847.7716.5496 1.6569.8464 2.6554.8904.0229 0 .0454.0114.068.0332h.1023c.0226 0 .0455.0108.068.033h.3744a6.7969 6.7969 0 0 0 .3066-.0662 2.8966 2.8966 0 0 0 1.0214-.3956c.34-.198.6012-.44.7827-.7257l.0683-.1321.068-.1318a3.8465 3.8465 0 0 0 .1023-.4289c.0226-.1318.034-.2527.034-.3627 0-.5936-.2726-1.0883-.817-1.4843a5.8967 5.8967 0 0 0-1.7023-.9566 5.0658 5.0658 0 0 0-.715-.1977 9.5087 9.5087 0 0 0-.6467-.165h-.068c-.0229-.0218-.0455-.0329-.0681-.0329a11.3414 11.3414 0 0 1-3.132-1.2534c-.9762-.5936-1.6455-1.4403-2.0087-2.5398-.0711-.23-.1392-.461-.2043-.6927a7.682 7.682 0 0 1-.102-.7584.9399.9399 0 0 1-.034-.2312v-.7915a4.2997 4.2997 0 0 1 .102-.5277 7.0537 7.0537 0 0 1 .3403-1.3193c.159-.4397.3632-.8356.6127-1.1873.7264-1.1656 1.6569-2.0012 2.7917-2.5068C14.0595 5.2528 15.2623 5 16.5105 5c.2952 0 .5901.0219.8853.0659.3188.022.6367.055.9531.0988.8279.135 1.6382.3562 2.417.6598.8171.308 1.5661.6706 2.2471 1.0884l-1.8724 4.057a13.1722 13.1722 0 0 0-1.9407-1.1543c-.6807-.33-1.4183-.4947-2.2127-.4947h-.2726c-.5219.0659-1.0097.2968-1.4638.6924-.4538.3738-.6807.7808-.6807 1.2205v.1979a.821.821 0 0 0 .1021.198c.0454.154.1248.2968.2383.4289.1134.1318.2383.2528.3744.3627.2497.198.6126.3848 1.0896.5607.4764.1539.9759.3078 1.498.4618.4309.1099.8507.2198 1.2594.3297.4087.0881.749.1761 1.0213.2642 1.2709.4396 2.2242 1.1761 2.8598 2.2097.6352 1.0114.9644 2.089.987 3.2322v.165c0 .1321-.0111.2642-.034.3959v.3627c-.136 1.1435-.5218 2.2319-1.1574 3.2655-.6127 1.0335-1.4411 1.8251-2.485 2.375a11.0487 11.0487 0 0 1-1.1917.4615 24.7805 24.7805 0 0 1-1.2254.2971 8.1154 8.1154 0 0 1-1.0213.1318 7.7058 7.7058 0 0 1-.9874.0659h-.3746c-1.3617-.0437-2.7005-.3298-4.0171-.8578-1.3162-.5495-2.485-1.2752-3.5061-2.1767l2.7231-4.2221Z" fill="#fff"/></svg>
