<?xml version="1.0" standalone="no"?>
<!DOCTYPE svg PUBLIC "-//W3C//DTD SVG 20010904//EN"
 "http://www.w3.org/TR/2001/REC-SVG-20010904/DTD/svg10.dtd">
<svg version="1.0" xmlns="http://www.w3.org/2000/svg"
 width="700.000000pt" height="700.000000pt" viewBox="0 0 700.000000 700.000000"
 preserveAspectRatio="xMidYMid meet">
<metadata>
Created by potrace 1.14, written by Peter Selinger 2001-2017
</metadata>
<g transform="translate(0.000000,700.000000) scale(0.100000,-0.100000)"
fill="#000000" stroke="none">
<path d="M0 3500 l0 -3500 3500 0 3500 0 0 3500 0 3500 -3500 0 -3500 0 0
-3500z m3789 2395 c306 -29 527 -80 783 -181 143 -56 429 -197 449 -220 7 -9
-45 -132 -192 -451 -111 -241 -202 -439 -203 -440 -1 -1 -44 27 -96 61 -103
68 -252 152 -366 204 -170 78 -449 115 -579 78 -92 -27 -184 -80 -263 -151
-172 -158 -177 -322 -15 -476 118 -112 343 -197 892 -334 256 -64 370 -111
526 -214 236 -156 427 -461 501 -802 28 -125 24 -424 -6 -568 -68 -322 -235
-642 -446 -855 -187 -189 -389 -295 -719 -376 -212 -53 -386 -73 -610 -73
-491 2 -958 147 -1400 437 -113 74 -290 211 -290 224 0 4 133 213 295 464
l294 457 111 -107 c354 -345 545 -456 858 -502 177 -26 237 -25 343 6 227 65
363 199 395 387 34 203 -56 342 -331 507 -114 69 -210 103 -470 170 -278 72
-395 112 -576 200 -178 85 -262 139 -359 231 -168 160 -281 397 -320 669 -23
166 -20 279 15 439 51 243 103 368 232 559 87 129 270 317 378 389 255 170
569 261 974 282 16 0 103 -6 195 -14z"/>
</g>
</svg>
