<svg width="32" height="32" fill="none" xmlns="http://www.w3.org/2000/svg"><path fill="#81B3D3" d="M0 0h32v32H0z"/><path d="M10.723 19.743c.023.023.034.045.034.067.023 0 .046.01.068.033a15.05 15.05 0 002.077 1.847c.771.55 1.657.846 2.655.89.023 0 .046.011.068.033h.103c.022 0 .045.011.068.033h.374a6.797 6.797 0 00.307-.066 2.897 2.897 0 001.02-.396c.34-.198.602-.44.784-.725l.068-.132.068-.132a3.846 3.846 0 00.102-.43 2.16 2.16 0 00.034-.362c0-.593-.272-1.088-.817-1.484a5.897 5.897 0 00-1.702-.957 5.066 5.066 0 00-.715-.197 9.509 9.509 0 00-.647-.165h-.068c-.023-.022-.045-.033-.068-.033a11.341 11.341 0 01-3.132-1.254c-.976-.593-1.645-1.44-2.009-2.54-.07-.23-.139-.46-.204-.692a7.682 7.682 0 01-.102-.759.94.94 0 01-.034-.23V11.3a4.3 4.3 0 01.102-.528 7.054 7.054 0 01.34-1.32 5.02 5.02 0 01.613-1.187c.727-1.165 1.657-2 2.792-2.506A8.922 8.922 0 0116.51 5c.295 0 .59.022.885.066.319.022.637.055.953.099a11.95 11.95 0 012.417.66c.817.307 1.566.67 2.247 1.088L21.14 10.97a13.172 13.172 0 00-1.94-1.154 5.005 5.005 0 00-2.213-.495h-.272c-.522.066-1.01.297-1.464.692-.454.374-.68.781-.68 1.22v.199a.821.821 0 00.101.198c.046.154.125.296.239.429.113.131.238.252.374.362.25.198.613.385 1.09.561.476.154.975.308 1.498.462.43.11.85.22 1.259.33.409.088.749.176 1.021.264 1.271.44 2.224 1.176 2.86 2.21.635 1.01.964 2.088.987 3.232v.165c0 .132-.011.264-.034.396v.362a7.976 7.976 0 01-1.157 3.266 6.204 6.204 0 01-2.485 2.375 11.049 11.049 0 01-1.192.461 24.78 24.78 0 01-1.225.297 8.115 8.115 0 01-1.022.132 7.706 7.706 0 01-.987.066h-.375c-1.361-.044-2.7-.33-4.017-.858A12.568 12.568 0 018 23.965l2.723-4.222z" fill="#fff"/></svg>