<svg version="1.0" xmlns="http://www.w3.org/2000/svg" width="933.333" height="933.333" viewBox="0 0 700 700"><path d="M0 350v350h700V0H0v350zm378.9-239.5c30.6 2.9 52.7 8 78.3 18.1 14.3 5.6 42.9 19.7 44.9 22 .7.9-4.5 13.2-19.2 45.1-11.1 24.1-20.2 43.9-20.3 44-.1.1-4.4-2.7-9.6-6.1-10.3-6.8-25.2-15.2-36.6-20.4-17-7.8-44.9-11.5-57.9-7.8-9.2 2.7-18.4 8-26.3 15.1-17.2 15.8-17.7 32.2-1.5 47.6 11.8 11.2 34.3 19.7 89.2 33.4 25.6 6.4 37 11.1 52.6 21.4 23.6 15.6 42.7 46.1 50.1 80.2 2.8 12.5 2.4 42.4-.6 56.8-6.8 32.2-23.5 64.2-44.6 85.5-18.7 18.9-38.9 29.5-71.9 37.6-21.2 5.3-38.6 7.3-61 7.3-49.1-.2-95.8-14.7-140-43.7-11.3-7.4-29-21.1-29-22.4 0-.4 13.3-21.3 29.5-46.4l29.4-45.7 11.1 10.7c35.4 34.5 54.5 45.6 85.8 50.2 17.7 2.6 23.7 2.5 34.3-.6 22.7-6.5 36.3-19.9 39.5-38.7 3.4-20.3-5.6-34.2-33.1-50.7-11.4-6.9-21-10.3-47-17-27.8-7.2-39.5-11.2-57.6-20-17.8-8.5-26.2-13.9-35.9-23.1-16.8-16-28.1-39.7-32-66.9-2.3-16.6-2-27.9 1.5-43.9 5.1-24.3 10.3-36.8 23.2-55.9 8.7-12.9 27-31.7 37.8-38.9 25.5-17 56.9-26.1 97.4-28.2 1.6 0 10.3.6 19.5 1.4z"/></svg>