<svg style="display: none">
  <symbol
    viewBox="0 0 23 23"
    xmlns="http://www.w3.org/2000/svg"
    id="button-opened">
      <path
        d="M22.2 2.8L19.4 0L11.1 8.3L2.8 0L0 2.8L8.3 11.1L0 19.4L2.8 22.2L11.1 13.9L19.4 22.2L22.2 19.4L13.9 11.1L22.2 2.8Z"/>
  </symbol>

  <symbol
    viewBox="0 0 23 22"
    xmlns="http://www.w3.org/2000/svg"
    id="button-closed">
      <path d="M22.9 0H0V4H22.9V0Z"/>
      <path d="M22.9 9H0V13H22.9V9Z"/>
      <path d="M22.9 18H0V22H22.9V18Z"/>
  </symbol>

  <symbol
    viewBox="0 0 16 20"
    xmlns="http://www.w3.org/2000/svg"
    id="replay">
      <path d="M8 4V0L3 5l5 5V6c3.3 0 6 2.7 6 6s-2.7 6-6 6-6-2.7-6-6H0c0 4.4 3.6 8 8 8s8-3.6 8-8-3.6-8-8-8Z"/>
  </symbol>

  <symbol
    viewBox="0 0 32 20"
    xmlns="http://www.w3.org/2000/svg"
    id="subtitles">
      <path d="M29 0H3C1.3 0 0 1.3 0 3v14c0 1.7 1.3 3 3 3h26c1.7 0 3-1.3 3-3V3c0-1.7-1.3-3-3-3ZM14.4 15.9c-.5.1-1.1.1-1.7.1-.7 0-1.4-.1-2-.3-.6-.2-1.2-.6-1.6-1-.4-.4-.8-1.1-1.1-1.9-.3-.8-.4-1.7-.4-2.8 0-1.1.2-2.1.5-2.9.3-.8.7-1.4 1.2-1.9s1.1-.8 1.7-1c.5-.1 1.2-.2 1.8-.2.7 0 1.2 0 1.7.1s.8.2 1.1.3l-.4 1.9-.9-.3H13c-.9 0-1.6.3-2.2 1-.6.7-.8 1.7-.8 3 0 .6.1 1.1.2 1.6s.3.9.6 1.3c.3.3.6.6 1 .8.4.2.9.3 1.4.3.5 0 .9 0 1.3-.1.3-.1.6-.2.9-.4l.5 1.8c-.5.3-1 .4-1.5.6Zm8.7 0c-.5.1-1.1.1-1.7.1-.7 0-1.4-.1-2-.3-.6-.2-1.2-.6-1.6-1-.5-.5-.9-1.1-1.1-1.9-.3-.8-.4-1.7-.4-2.8 0-1.1.2-2.1.5-2.9.3-.8.7-1.4 1.2-1.9s1.1-.8 1.7-1c.5-.1 1.2-.2 1.8-.2.7 0 1.2 0 1.7.1s.8.2 1.1.3l-.4 1.9L23 6h-1.3c-.9 0-1.6.3-2.2 1-.6.7-.8 1.7-.8 3 0 .6.1 1.1.2 1.6s.3.9.6 1.3c.3.3.6.6 1 .8.4.2.9.3 1.4.3.5 0 .9 0 1.3-.1.3-.1.6-.2.9-.4l.5 1.8c-.5.3-1 .4-1.5.6Z"/>
  </symbol>

  <symbol
    viewBox="0 0 20 20"
    xmlns="http://www.w3.org/2000/svg"
    id="fullscreen">
      <path d="M0 0v6h3V3h3V0H0ZM3 14H0v6h6v-3H3v-3ZM17 0h-3v3h3v3h3V0h-3ZM17 17h-3v3h6v-6h-3v3Z"/>
  </symbol>

  <symbol
    viewBox="0 0 40 35"
    xmlns="http://www.w3.org/2000/svg"
    id="burger">
      <path d="M37.7428 23.3004H2.25722C0.997375 23.3004 0 24.3135 0 25.4785V27.2514C0 28.4164 0.997375 29.3788 2.25722 29.3788H2.78215V29.8853C2.78215 32.6712 5.14436 34.9 7.979 34.9H32.021C34.9081 34.9 37.2178 32.6206 37.2178 29.8853V29.3788H37.7428C38.9501 29.3788 40 28.4164 40 27.2007V25.4278C40 24.3135 39.0026 23.3004 37.7428 23.3004ZM35.6955 29.8853C35.6955 31.8101 34.0682 33.3804 32.0735 33.3804H7.92651C5.93176 33.3804 4.30446 31.8101 4.30446 29.8853V29.3788H35.6955V29.8853ZM38.4252 27.2007C38.4252 27.5553 38.1102 27.8592 37.7428 27.8592H2.25722C1.88976 27.8592 1.5748 27.5553 1.5748 27.2007V25.4278C1.5748 25.1239 1.88976 24.82 2.25722 24.82H37.7953C38.1627 24.82 38.4777 25.1239 38.4777 25.4785V27.2007H38.4252Z"/>
      <path d="M8.50395 19.1973L11.3386 21.2234L14.2257 19.1973L17.1129 21.2234L20 19.1973L22.8347 21.2234L25.7218 19.1973L28.6089 21.2234L31.4961 19.1973L34.3832 21.2234L37.6903 18.8427L36.7979 17.627L34.3832 19.2986L31.4961 17.2725L28.6089 19.2986L25.7218 17.2725L22.8347 19.2986L20 17.2725L17.1129 19.2986L14.2257 17.2725L11.3386 19.2986L8.50395 17.2725L5.61682 19.2986L3.20212 17.627L2.25723 18.8427L5.61682 21.2234L8.50395 19.1973Z"/>
      <path d="M37.2179 15.7531C37.2179 15.4492 37.2704 14.4361 37.2179 14.2335C36.8504 6.33164 29.2913 0 20 0C10.7087 0 3.09712 6.33164 2.72967 14.2335C2.72967 14.4361 2.72967 15.4492 2.72967 15.7531H37.2179ZM20 1.51959C28.399 1.51959 35.3281 7.19274 35.6431 14.2335H4.30447C4.67193 7.19274 11.6011 1.51959 20 1.51959Z"/>
      <path d="M20 8.61109C20.5798 8.61109 21.0499 8.15752 21.0499 7.59802C21.0499 7.03852 20.5798 6.58496 20 6.58496C19.4202 6.58496 18.9501 7.03852 18.9501 7.59802C18.9501 8.15752 19.4202 8.61109 20 8.61109Z"/>
      <path d="M15.8005 6.12866C16.3803 6.12866 16.8504 5.6751 16.8504 5.1156C16.8504 4.5561 16.3803 4.10254 15.8005 4.10254C15.2207 4.10254 14.7506 4.5561 14.7506 5.1156C14.7506 5.6751 15.2207 6.12866 15.8005 6.12866Z"/>
      <path d="M24.1995 6.12866C24.7793 6.12866 25.2493 5.6751 25.2493 5.1156C25.2493 4.5561 24.7793 4.10254 24.1995 4.10254C23.6196 4.10254 23.1496 4.5561 23.1496 5.1156C23.1496 5.6751 23.6196 6.12866 24.1995 6.12866Z"/>
  </symbol>

  <symbol
    viewBox="0 0 32 38"
    xmlns="http://www.w3.org/2000/svg"
    id="gift">
      <path d="M30.5778 11.2058H30.527H18.1841C25.0921 7.76156 25.6508 5.58358 25.3968 4.36796C24.8381 2.39259 22.5524 0.873068 20.419 1.68348C17.6254 2.74714 16.8635 6.9005 16.1016 9.88889C15.1365 6.84985 14.2222 3.0004 12.0381 1.02502C11.4286 0.467863 10.5143 -0.0892942 9.14286 0.0120071C7.11111 0.21461 4.21587 2.69649 5.43492 5.48228C6.55238 8.16676 10.2603 9.88888 12.7492 11.2565H1.42222C0.609524 11.2565 0 11.9149 0 12.6747V18.3475C0 19.158 0.660317 19.7658 1.42222 19.7658H1.5746V38H30.527V19.7658H30.5778C31.3905 19.7658 32 19.1073 32 18.3475V12.6747C32 11.8643 31.3397 11.2058 30.5778 11.2058ZM21.2317 2.94975C22.2984 2.79779 23.7206 3.6082 23.873 4.57057C24.0762 5.93813 22.1968 7.2044 21.3333 7.76156C20.0635 8.62262 18.8444 9.07847 17.6762 9.78758C18.0825 7.91351 18.946 3.25365 21.2317 2.94975ZM9.75238 7.91351C8.63492 7.15375 6.50159 5.68488 6.55238 4.01341C6.60317 2.18999 9.44762 0.721116 10.9714 2.08868C12.9016 3.76016 13.8159 7.66026 14.527 10.3954C12.9016 9.58498 11.3778 8.97717 9.75238 7.91351ZM12.7492 36.4805H3.04762V19.7658H12.7492V36.4805ZM12.7492 18.2462H1.52381V12.7253H12.7492V18.2462ZM17.8286 36.4805H14.2222V12.7253H17.8286V36.4805ZM29.0032 36.4805H19.3524V19.7658H29.054V36.4805H29.0032ZM30.4762 18.2462H19.3524V12.7253H30.4762V18.2462Z"/>
  </symbol>

  <symbol
    viewBox="0 0 39 37"
    xmlns="http://www.w3.org/2000/svg"
    id="house">
      <path d="M15.4015 33.2194H23.7549V21.0613H15.4015V33.2194ZM22.2408 31.7441H16.9155V22.5365H22.1886V31.7441H22.2408Z"/>
      <path d="M37.9036 20.0431L39 18.9748L33.8313 13.9386V0.203483H26.6265V6.91843L19.4739 0L0 19.0257L1.09639 20.094L5.16867 16.126V35.3552H3.13253V36.8305H36.494V35.3552H33.8313V16.0752L37.9036 20.0431ZM28.1406 1.72961H32.2651V12.4633L28.1406 8.44455V1.72961ZM32.3173 35.3043H6.73494V14.5999L19.4739 2.13657L32.2651 14.5999V35.3043H32.3173Z"/>
      <path d="M15.5582 13.8369C15.5582 16.0243 17.3855 17.8048 19.5783 17.8048C21.8233 17.8048 23.6506 16.0243 23.6506 13.8369C23.6506 11.6494 21.8233 9.9198 19.5783 9.9198C17.3333 9.9198 15.5582 11.6494 15.5582 13.8369ZM19.5783 11.2933C20.9879 11.2933 22.1888 12.4125 22.1888 13.8369C22.1888 15.2104 21.0402 16.3804 19.5783 16.3804C18.1687 16.3804 16.9679 15.2612 16.9679 13.8369C16.9679 12.4633 18.1687 11.2933 19.5783 11.2933Z"/>
      <path d="M10.3895 21.0613H8.82324V23.0452H10.3895V21.0613Z"/>
      <path d="M13.4698 21.0613H11.9036V23.0452H13.4698V21.0613Z"/>
      <path d="M10.3895 24.1128H8.82324V26.0968H10.3895V24.1128Z"/>
      <path d="M13.4698 24.1128H11.9036V26.0968H13.4698V24.1128Z"/>
      <path d="M27.0443 21.0613H25.478V23.0452H27.0443V21.0613Z"/>
      <path d="M30.1769 21.0613H28.6106V23.0452H30.1769V21.0613Z"/>
      <path d="M27.0443 24.1128H25.478V26.0968H27.0443V24.1128Z"/>
      <path d="M30.1769 24.1128H28.6106V26.0968H30.1769V24.1128Z"/>
  </symbol>

  <symbol
    viewBox="0 0 23 21"
    xmlns="http://www.w3.org/2000/svg"
    id="like">
      <path d="m12.9636 3.78-.6272 3.045-.6273 2.625h9.0954v2.205L17.7727 18.9h-9.409V8.4l4.5999-4.62ZM2.0909 10.5v8.4-8.4ZM13.8 0 6.9 6.93c-.4182.315-.6273.84-.6273 1.47v10.5c0 1.155.941 2.1 2.091 2.1h9.409c.8364 0 1.5682-.525 1.8818-1.26l3.1364-7.455c.1046-.21.1046-.525.1046-.735v-2.1H23c0-1.155-.9409-2.1-2.0909-2.1h-6.5864l1.0455-4.83v-.315c0-.42-.2091-.84-.4182-1.155L13.8 0ZM4.1818 8.4H0V21h4.1818V8.4Z"/>
  </symbol>

  <symbol
    viewBox="0 0 16 12"
    xmlns="http://www.w3.org/2000/svg"
    id="email">
      <path d="M8 8C7.7 8 7.5 7.9 7 7.7L0 4V11C0 11.5 0.5 12 1 12H15C15.5 12 16 11.5 16 11V4L9 7.7C8.5 7.9 8.3 8 8 8ZM15 0H1C0.5 0 0 0.5 0 1V1.8L8 6L16 1.8V1C16 0.5 15.5 0 15 0Z"/>
  </symbol>

  <symbol
    viewBox="0 0 18 18"
    xmlns="http://www.w3.org/2000/svg"
    id="phone">
      <path d="M3.6 7.8C5 10.6 7.4 12.9 10.2 14.4L12.4 12.2C12.7 11.9 13.1 11.8 13.4 12C14.5 12.4 15.7 12.6 17 12.6C17.6 12.6 18 13 18 13.6V17C18 17.6 17.6 18 17 18C7.6 18 0 10.4 0 1C0 0.4 0.4 0 1 0H4.5C5.1 0 5.5 0.4 5.5 1C5.5 2.2 5.7 3.4 6.1 4.6C6.2 4.9 6.1 5.3 5.9 5.6L3.6 7.8Z"/>
  </symbol>

  <symbol
    viewBox="0 0 1200 57"
    xmlns="http://www.w3.org/2000/svg"
    id="jags">
      <path
        d="M249.6 23.7 0 0v57h600L249.6 0v23.7ZM950.4 23.7V0L600 57h599.9V0L950.4 23.7Z"/>
  </symbol>

  <symbol
    viewBox="0 0 768 37"
    xmlns="http://www.w3.org/2000/svg"
    id="triangle">
      <path
        fill-rule="evenodd"
        clip-rule="evenodd"
        d="M0 0h384v37L0 0ZM768 0H384v37L768 0Z"
      />
  </symbol>
</svg>
