<svg style="display: none">
  <svg
    viewBox="0 0 27 35"
    xmlns="http://www.w3.org/2000/svg"
    id="copy-logo">
      <path d="M13.6 0H13.5L0 1.4V26.1L13.5 34.1L26.9 26.1V1.4L13.6 0ZM25 12.1L13.5 5.3V5.2H13.4L13.3 5.1V5.2L1.9 12.1V3.1L13.4 1.9L25 3.1V12.1ZM13.4 6.8L24.9 13.5L20.4 16.1L13.3 11.9V13.3L19.2 16.8L18.3 17.3L13.3 14.3V15.7L17.1 18L16.3 18.5L13.3 16.7V18.1L15.2 19.2L13.4 20.3L2 13.6L13.4 6.8ZM1.9 15.1L13.3 21.9V22.9L5.4 18.2V19.6L13.4 24.4V25.5L5.4 20.8V22.2L13.4 27L21.5 22.1V16.9L24.9 14.9V24.9L13.4 31.8L1.9 25V15.1Z"/>
  </svg>

  <symbol
    viewBox="0 0 23 23"
    xmlns="http://www.w3.org/2000/svg"
    id="button-close">
      <path
        d="M22.2 2.8L19.4 0L11.1 8.3L2.8 0L0 2.8L8.3 11.1L0 19.4L2.8 22.2L11.1 13.9L19.4 22.2L22.2 19.4L13.9 11.1L22.2 2.8Z"/>
  </symbol>

  <symbol
    viewBox="0 0 23 22"
    xmlns="http://www.w3.org/2000/svg"
    id="button-open">
      <path d="M22.9 0H0V4H22.9V0Z"/>
      <path d="M22.9 9H0V13H22.9V9Z"/>
      <path d="M22.9 18H0V22H22.9V18Z"/>
  </symbol>

  <symbol
    viewBox="0 0 16 20"
    xmlns="http://www.w3.org/2000/svg"
    id="replay">
      <path d="M8 4V0L3 5l5 5V6c3.3 0 6 2.7 6 6s-2.7 6-6 6-6-2.7-6-6H0c0 4.4 3.6 8 8 8s8-3.6 8-8-3.6-8-8-8Z"/>
  </symbol>

  <symbol
    viewBox="0 0 32 20"
    xmlns="http://www.w3.org/2000/svg"
    id="subtitles">
      <path d="M29 0H3C1.3 0 0 1.3 0 3v14c0 1.7 1.3 3 3 3h26c1.7 0 3-1.3 3-3V3c0-1.7-1.3-3-3-3ZM14.4 15.9c-.5.1-1.1.1-1.7.1-.7 0-1.4-.1-2-.3-.6-.2-1.2-.6-1.6-1-.4-.4-.8-1.1-1.1-1.9-.3-.8-.4-1.7-.4-2.8 0-1.1.2-2.1.5-2.9.3-.8.7-1.4 1.2-1.9s1.1-.8 1.7-1c.5-.1 1.2-.2 1.8-.2.7 0 1.2 0 1.7.1s.8.2 1.1.3l-.4 1.9-.9-.3H13c-.9 0-1.6.3-2.2 1-.6.7-.8 1.7-.8 3 0 .6.1 1.1.2 1.6s.3.9.6 1.3c.3.3.6.6 1 .8.4.2.9.3 1.4.3.5 0 .9 0 1.3-.1.3-.1.6-.2.9-.4l.5 1.8c-.5.3-1 .4-1.5.6Zm8.7 0c-.5.1-1.1.1-1.7.1-.7 0-1.4-.1-2-.3-.6-.2-1.2-.6-1.6-1-.5-.5-.9-1.1-1.1-1.9-.3-.8-.4-1.7-.4-2.8 0-1.1.2-2.1.5-2.9.3-.8.7-1.4 1.2-1.9s1.1-.8 1.7-1c.5-.1 1.2-.2 1.8-.2.7 0 1.2 0 1.7.1s.8.2 1.1.3l-.4 1.9L23 6h-1.3c-.9 0-1.6.3-2.2 1-.6.7-.8 1.7-.8 3 0 .6.1 1.1.2 1.6s.3.9.6 1.3c.3.3.6.6 1 .8.4.2.9.3 1.4.3.5 0 .9 0 1.3-.1.3-.1.6-.2.9-.4l.5 1.8c-.5.3-1 .4-1.5.6Z"/>
  </symbol>

  <symbol
    viewBox="0 0 20 20"
    xmlns="http://www.w3.org/2000/svg"
    id="fullscreen">
      <path d="M0 0v6h3V3h3V0H0ZM3 14H0v6h6v-3H3v-3ZM17 0h-3v3h3v3h3V0h-3ZM17 17h-3v3h6v-6h-3v3Z"/>
  </symbol>

  <symbol
    viewBox="0 0 9 19"
    xmlns="http://www.w3.org/2000/svg"
    id="facebook">
      <path d="M6.3 3.4h2.4V0H5.8C2.7.2 1.5 2.4 1.9 6.1H0v3.5h2v9.3h3.8V9.6h2.9V6.1H5.8c0-1 0-2.4.5-2.7Z"/>
  </symbol>

  <symbol
    viewBox="0 0 18 15"
    xmlns="http://www.w3.org/2000/svg"
    id="twitter">
      <path d="M11.3.167c1.7-.5 3.1.2 3.7 1.1.7-.2 1.4-.5 2.1-.7 0 .8-.5 1.5-.9 1.7.7.2 1.3-.5 1.3-.5-.2 1-1 1.7-1.6 2-.2 6.6-3.3 11-10.4 10.8H5c-.4 0-4.3-.4-5-1.8 2.3.2 4-.4 4.8-1.1-1-.3-2.8-.5-3.1-2.9.4.1.6.2 1.3.1-1.2-.8-2.6-1.5-2.5-3.7.3.3 1.1.5 1.4.5-.7-.2-2-3.3-.9-4.8 1.9 1.8 3.8 3.5 7.4 3.7.1-2.3 1.1-3.8 2.9-4.4Z"/>
  </symbol>

  <symbol
    viewBox="0 0 20 14"
    xmlns="http://www.w3.org/2000/svg"
    id="youtube">
      <path d="M17.1 0H2.8C1.3 0 0 1.3 0 2.8v8.3C0 12.7 1.3 14 2.8 14h14.3c1.6 0 2.8-1.3 2.8-2.8V2.8C20 1.3 18.7 0 17.1 0ZM7 10.4V3.6L13.8 7 7 10.4Z"/>
  </symbol>

  <symbol
    viewBox="0 0 23 21"
    xmlns="http://www.w3.org/2000/svg"
    id="like">
      <path d="m12.9636 3.78-.6272 3.045-.6273 2.625h9.0954v2.205L17.7727 18.9h-9.409V8.4l4.5999-4.62ZM2.0909 10.5v8.4-8.4ZM13.8 0 6.9 6.93c-.4182.315-.6273.84-.6273 1.47v10.5c0 1.155.941 2.1 2.091 2.1h9.409c.8364 0 1.5682-.525 1.8818-1.26l3.1364-7.455c.1046-.21.1046-.525.1046-.735v-2.1H23c0-1.155-.9409-2.1-2.0909-2.1h-6.5864l1.0455-4.83v-.315c0-.42-.2091-.84-.4182-1.155L13.8 0ZM4.1818 8.4H0V21h4.1818V8.4Z"/>
  </symbol>
</svg>
