<svg width="39" height="37" fill="none" xmlns="http://www.w3.org/2000/svg"><path d="M15.402 33.22h8.353V21.06h-8.353v12.16zm6.839-1.476h-5.325v-9.207h5.273v9.207h.052z" fill="#81B3D2"/><path d="M37.904 20.043L39 18.975l-5.169-5.036V.203h-7.205v6.715L19.474 0 0 19.026l1.096 1.068 4.073-3.968v19.23H3.133v1.474h33.361v-1.475h-2.663v-19.28l4.073 3.968zM28.14 1.73h4.124v10.733L28.14 8.445V1.73zm4.176 33.574H6.735V14.6L19.474 2.137 32.265 14.6v20.704h.052z" fill="#81B3D2"/><path d="M15.558 13.837c0 2.187 1.828 3.968 4.02 3.968 2.245 0 4.073-1.78 4.073-3.968 0-2.188-1.828-3.917-4.073-3.917s-4.02 1.73-4.02 3.917zm4.02-2.544c1.41 0 2.61 1.12 2.61 2.544 0 1.373-1.148 2.543-2.61 2.543-1.41 0-2.61-1.119-2.61-2.543 0-1.374 1.2-2.544 2.61-2.544zm-9.188 9.768H8.822v1.984h1.566v-1.984zm3.08 0h-1.566v1.984h1.566v-1.984zm-3.08 3.052H8.822v1.984h1.566v-1.984zm3.08 0h-1.566v1.984h1.566v-1.984zm13.574-3.052h-1.566v1.984h1.566v-1.984zm3.133 0H28.61v1.984h1.566v-1.984zm-3.133 3.052h-1.566v1.984h1.566v-1.984zm3.133 0H28.61v1.984h1.566v-1.984z" fill="#81B3D2"/></svg>